<?xml version="1.0" encoding="UTF-8"?>
<svg version="1.1" xmlns="http://www.w3.org/2000/svg" width="512" height="512">
<path d="M0 0 C0.98871094 0.78375 1.97742188 1.5675 2.99609375 2.375 C17.62198952 14.23159089 30.92881972 27.76990678 42 43 C42.62777344 43.84433594 43.25554687 44.68867187 43.90234375 45.55859375 C78.70486499 93.61921833 91.28853864 153.93044874 82.22265625 212.171875 C76.57393522 245.7235748 63.15650866 277.62103657 43 305 C42.55930176 305.5990918 42.11860352 306.19818359 41.66455078 306.81542969 C22.7187757 332.2872059 -0.60673711 352.15004844 -28 368 C-28.93247559 368.54865723 -28.93247559 368.54865723 -29.88378906 369.10839844 C-57.92892799 385.4924209 -92.54409784 395.12380017 -125 396 C-125.76973145 396.02578125 -126.53946289 396.0515625 -127.33251953 396.078125 C-179.00990732 397.62564176 -231.41368551 382.68455415 -272 350 C-272.89460938 349.29617188 -273.78921875 348.59234375 -274.7109375 347.8671875 C-284.88354737 339.73492918 -294.71699706 331.0779652 -303 321 C-303.76699219 320.10925781 -304.53398437 319.21851563 -305.32421875 318.30078125 C-339.5060412 278.25622662 -357.48845161 227.59464932 -357.375 175.125 C-357.37445618 174.17701538 -357.37391235 173.22903076 -357.37335205 172.25231934 C-357.33353879 157.13028752 -356.41366453 142.78201029 -353 128 C-352.69449219 126.58944336 -352.69449219 126.58944336 -352.3828125 125.15039062 C-346.13643163 96.67537661 -334.02201364 69.65135806 -317 46 C-316.59813477 45.44119141 -316.19626953 44.88238281 -315.78222656 44.30664062 C-309.46813839 35.62667736 -302.42801377 27.73513357 -295 20 C-294.51273438 19.48550293 -294.02546875 18.97100586 -293.5234375 18.44091797 C-286.45645549 10.99838444 -278.97150873 4.44520434 -270.74707031 -1.69287109 C-269.07674451 -2.94258103 -267.42502836 -4.21398041 -265.7734375 -5.48828125 C-241.87444598 -23.58549709 -213.0541703 -35.31589832 -184 -42 C-183.030625 -42.22445801 -182.06125 -42.44891602 -181.0625 -42.68017578 C-118.74930051 -56.32165746 -49.6681539 -39.57408763 0 0 Z M-248 27 C-248.8765625 27.65613281 -249.753125 28.31226563 -250.65625 28.98828125 C-289.77993752 59.33270756 -314.18401885 104.41694367 -320.62109375 153.23046875 C-321.29214358 160.04508235 -321.24431742 166.90836603 -321.25 173.75 C-321.25067474 174.48132141 -321.25134949 175.21264282 -321.25204468 175.96612549 C-321.20659945 207.07868985 -313.56876026 235.58763475 -299 263 C-298.09314453 264.74216797 -298.09314453 264.74216797 -297.16796875 266.51953125 C-274.3529112 308.54726884 -233.48530009 338.89902761 -188.12890625 352.4921875 C-139.94471699 366.23305702 -88.88498328 360.15062047 -45 336 C-30.31420988 327.27986612 -17.4063135 316.66405543 -5 305 C-4.36320312 304.41734375 -3.72640625 303.8346875 -3.0703125 303.234375 C17.14127249 284.08655764 31.5465609 257.20290765 40 231 C40.24089355 230.25395508 40.48178711 229.50791016 40.72998047 228.73925781 C42.36917712 223.5406952 43.77010875 218.30989669 45 213 C45.16516113 212.29520508 45.33032227 211.59041016 45.50048828 210.86425781 C55.43796786 165.8732696 45.25045761 115.95198971 21.09130859 77.24291992 C15.15474955 67.97055042 8.59635069 59.40570915 1.12109375 51.30859375 C-0.82998345 49.18504564 -2.69968282 47.01324319 -4.5625 44.8125 C-8.07580746 40.80413558 -11.88322198 37.37804134 -16 34 C-16.98613281 33.17628906 -17.97226562 32.35257813 -18.98828125 31.50390625 C-52.04131369 4.37695004 -93.06567602 -10.21200629 -135.75 -10.25 C-136.43396851 -10.25067474 -137.11793701 -10.25134949 -137.82263184 -10.25204468 C-177.28796285 -10.19051308 -216.80348977 2.49432026 -248 27 Z " fill="#000000" transform="translate(392,81)"/>
<path d="M0 0 C0.92425781 -0.02578125 1.84851563 -0.0515625 2.80078125 -0.078125 C9.50950218 0.68443597 13.6441271 4.78038142 18.15185547 9.3737793 C19.07488213 10.29614883 19.07488213 10.29614883 20.01655579 11.2371521 C22.03646465 13.25914086 24.04555559 15.29152602 26.0546875 17.32421875 C27.45793097 18.73306099 28.86184091 20.1412397 30.26638794 21.54878235 C33.95223683 25.24605775 37.62898541 28.95225499 41.30389404 32.66040039 C45.05910713 36.44636148 48.82288095 40.22379082 52.5859375 44.00195312 C59.96151543 51.40965652 67.32750497 58.82681613 74.6875 66.25 C79.24139611 62.44338948 83.56502606 58.50628589 87.72705078 54.27636719 C88.2857486 53.71299652 88.84444641 53.14962585 89.42007446 52.56918335 C90.6198502 51.35899218 91.81851316 50.14769694 93.01614761 48.93538666 C94.91360712 47.01571997 96.81516612 45.10020369 98.71798706 43.18585205 C104.12311406 37.74729121 109.52392153 32.30449631 114.91455078 26.8515625 C118.22296748 23.50549503 121.53865945 20.16678693 124.85912704 16.83267975 C126.11937758 15.56438505 127.3768473 14.29332077 128.63144302 13.01943207 C130.38303105 11.24135633 132.1437177 9.47278494 133.90673828 7.70605469 C134.42010742 7.18032867 134.93347656 6.65460266 135.46240234 6.11294556 C140.00975057 1.5907255 143.76266282 -0.03542622 150.125 -0.0625 C156.49422079 0.08283792 159.93312904 1.45575697 164.4375 6.0625 C168.23547858 11.44296965 168.95664305 15.40710645 168.3671875 21.80859375 C166.53998092 28.37183579 162.37361088 32.99641065 157.63378906 37.64428711 C157.03823715 38.2402771 156.44268524 38.83626709 155.8290863 39.45031738 C153.87746516 41.39986439 151.91546823 43.33859479 149.953125 45.27734375 C148.59055151 46.63431641 147.22864301 47.99195711 145.86737061 49.35023499 C142.29670382 52.90949144 138.71711778 56.45964298 135.13555908 60.00793457 C131.47683923 63.63587131 127.82668189 67.27240078 124.17578125 70.90820312 C117.02134586 78.03054165 109.85745244 85.14328485 102.6875 92.25 C104.31371278 96.39840607 107.33812216 99.13260726 110.46655273 102.17675781 C111.05699371 102.75945938 111.64743469 103.34216095 112.25576782 103.94252014 C113.53648054 105.20559937 114.81938411 106.46646015 116.10421562 107.72534943 C118.13990157 109.72156818 120.16793866 111.72526206 122.19386292 113.73138428 C127.95429085 119.43382183 133.72412567 125.12659291 139.5090332 130.80419922 C143.04933675 134.27989799 146.57720664 137.7678187 150.0976429 141.26363373 C151.43856729 142.59033703 152.78414331 143.91235647 154.13448906 145.2294693 C156.02772052 147.0767556 157.90474163 148.93921 159.77905273 150.80566406 C160.33551987 151.34101273 160.891987 151.87636139 161.46531677 152.42793274 C165.81834331 156.81465842 168.36887075 161.48438156 168.90234375 167.7890625 C168.05897623 174.13213655 166.03771251 178.08057306 161.25 182.5 C156.3603107 185.83930001 152.63692905 186.76288181 146.6875 186.25 C134.75906391 182.87402752 125.45749343 170.157567 116.8984375 161.55859375 C115.70225713 160.36054327 114.50585205 159.1627171 113.30923462 157.96510315 C110.19342472 154.84551472 107.08063221 151.722933 103.96850586 148.59967041 C100.77903439 145.39988331 97.58665289 142.20300227 94.39453125 139.00585938 C88.15603809 132.75671139 81.92073663 126.50439113 75.6875 120.25 C69.28674922 125.47063042 63.53317134 131.30220737 57.72924423 137.16365623 C55.89862951 139.01182455 54.06435323 140.85628696 52.22903442 142.69978333 C47.01604213 147.93709498 41.80882112 153.18011739 36.60595703 158.42749023 C33.41207016 161.6481877 30.21330546 164.86397363 27.01150894 168.07680702 C25.79680497 169.29770465 24.58399994 170.52049472 23.37316513 171.74522972 C21.6815608 173.45609602 19.98384255 175.16067037 18.28466797 176.86401367 C17.79000031 177.36744293 17.29533264 177.87087219 16.78567505 178.38955688 C11.72364945 183.4374747 7.47210584 185.88609559 0.4375 186.5625 C-5.65143256 186.05508895 -10.26992307 183.80474463 -14.25 179.125 C-17.16497467 175.06170197 -17.51683384 172.98702926 -17.625 168 C-17.66238281 166.88109375 -17.69976562 165.7621875 -17.73828125 164.609375 C-16.89270978 157.93789368 -11.85259717 153.50363778 -7.25878906 148.96923828 C-6.66323715 148.37339432 -6.06768524 147.77755035 -5.4540863 147.16365051 C-3.50013946 145.21108808 -1.53922258 143.26569055 0.421875 141.3203125 C1.78423001 139.96169078 3.14614178 138.60262449 4.50762939 137.24313354 C8.08049012 133.67788438 11.65931755 130.11868416 15.23944092 126.56072998 C18.89633832 122.92434443 22.54753314 119.28224292 26.19921875 115.640625 C33.35642423 108.50482572 40.51994916 101.37540677 47.6875 94.25 C46.082344 90.23277355 43.25080958 87.56534608 40.21557617 84.59863281 C39.65760849 84.04519196 39.09964081 83.4917511 38.52476501 82.92153931 C37.31452087 81.72223849 36.10200996 80.52522176 34.88750267 79.33023834 C32.961175 77.43413396 31.04165212 75.53137828 29.12385559 73.62664795 C23.67039577 68.21287895 18.20443198 62.81179862 12.73510742 57.4140625 C9.3872029 54.10905386 6.04678412 50.79662257 2.71056557 47.47982025 C1.4421139 46.22188715 0.17075916 44.96687401 -1.10361671 43.71494293 C-16.43654828 28.65152139 -16.43654828 28.65152139 -17.94140625 21.08984375 C-17.79302315 14.60462964 -17.31702956 10.44506537 -13.3125 5.25 C-9.01143517 1.26364723 -5.79893577 0.0962479 0 0 Z " fill="#000000" transform="translate(180.3125,162.75)"/>
</svg>
