<?xml version="1.0" encoding="UTF-8"?>
<svg version="1.1" xmlns="http://www.w3.org/2000/svg" width="512" height="512">
<path d="M0 0 C1.48811188 -0.0129007 1.48811188 -0.0129007 3.00628662 -0.02606201 C4.63014282 -0.03245193 4.63014282 -0.03245193 6.2868042 -0.03897095 C7.43211609 -0.04714844 8.57742798 -0.05532593 9.75744629 -0.06375122 C13.55466189 -0.08859513 17.35183994 -0.10512485 21.14910889 -0.11953735 C22.44937767 -0.12486103 23.74964645 -0.13018471 25.08931732 -0.13566971 C30.56243418 -0.15690333 36.03553893 -0.17602911 41.50868607 -0.1872921 C49.3139195 -0.20346583 57.11864996 -0.23647748 64.9236939 -0.29369295 C70.43056043 -0.33266053 75.93729409 -0.35195687 81.44429469 -0.35721266 C84.72247276 -0.36083356 87.99999743 -0.37507974 91.27805328 -0.4053154 C114.73210685 -0.60918665 132.06976376 2.15631543 149.78973389 18.7828064 C161.8615664 31.33007067 167.37598169 46.74226136 167.36151123 63.87142944 C167.36822845 65.02214432 167.37494568 66.17285919 167.38186646 67.35844421 C167.40080493 71.14838018 167.40476879 74.93813861 167.40692139 78.7281189 C167.4117256 80.70602914 167.41653374 82.68393941 167.42184222 84.66184837 C167.43808605 90.87885716 167.44301499 97.09580811 167.44158936 103.31283569 C167.44039005 109.69421592 167.46145859 116.07525679 167.49307668 122.45655125 C167.51936697 127.96176935 167.52995129 133.46687751 167.52867854 138.97215778 C167.52817246 142.24838388 167.5355425 145.5242435 167.55503464 148.80042076 C167.57478705 152.46369363 167.56881913 156.12610941 167.55682373 159.78939819 C167.56806274 160.85217987 167.57930176 161.91496155 167.59088135 163.00994873 C167.4502825 180.03819053 159.8192377 195.52548411 147.96160889 207.4937439 C134.98291953 219.43764586 119.71728606 224.46931496 102.40765381 224.42855835 C100.70821373 224.43622475 100.70821373 224.43622475 98.97444153 224.44404602 C95.25005731 224.45788194 91.52585942 224.4569896 87.80145264 224.4546814 C85.19747347 224.45857186 82.59349493 224.46290726 79.98951721 224.46766663 C74.53838466 224.47585806 69.08730398 224.4749864 63.63616943 224.46957397 C57.3632976 224.46354071 51.09065044 224.47583652 44.81781691 224.49714404 C38.7507001 224.51698397 32.6836872 224.51992191 26.61654091 224.51640892 C24.05028061 224.51692016 21.48401658 224.52212059 18.91777611 224.53222084 C15.31917719 224.54464598 11.72108915 224.53775656 8.12249756 224.5262146 C7.07639313 224.53385834 6.0302887 224.54150208 4.95248413 224.54937744 C-12.54702499 224.42618194 -28.00082527 217.39904883 -40.27276611 205.0640564 C-49.49926843 194.95560901 -57.0067789 181.24312645 -57.07618713 167.20469666 C-57.08334244 166.20828659 -57.09049774 165.21187653 -57.09786987 164.18527222 C-57.10055878 163.09798828 -57.10324768 162.01070435 -57.10601807 160.89047241 C-57.11258926 159.74034164 -57.11916046 158.59021088 -57.12593079 157.40522766 C-57.14566165 153.59358656 -57.15732847 149.78198494 -57.16729736 145.9703064 C-57.17137289 144.66629316 -57.17544842 143.36227993 -57.17964745 142.01875114 C-57.19869614 135.82348282 -57.21292296 129.62822631 -57.22125942 123.43293434 C-57.2310048 116.31002967 -57.25725437 109.187438 -57.29776031 102.06464344 C-57.32807152 96.54253445 -57.34274273 91.02051433 -57.34604043 85.49832386 C-57.3483756 82.20860272 -57.35915204 78.91928936 -57.3825016 75.62964058 C-57.40700871 71.94680476 -57.40590593 68.26477209 -57.39898682 64.58187866 C-57.41179687 63.51281281 -57.42460693 62.44374695 -57.43780518 61.34228516 C-57.32023114 44.04116817 -49.65443621 29.18268197 -37.80010986 16.95858765 C-28.01225921 7.74855286 -13.71479066 0.08881709 0 0 Z M-17.30401611 43.40390015 C-24.24077113 52.28609071 -25.08003606 62.72366742 -25.07427979 73.58651733 C-25.0776384 74.50621307 -25.08099701 75.42590881 -25.0844574 76.37347412 C-25.09391819 79.39925506 -25.09590814 82.42498036 -25.09698486 85.45077515 C-25.10020113 87.56676251 -25.10356548 89.68274966 -25.10707092 91.79873657 C-25.11305023 96.23028071 -25.11491208 100.66180538 -25.11431885 105.09335327 C-25.11421736 110.74982175 -25.12786075 116.40616431 -25.14509106 122.062603 C-25.15625368 126.4328569 -25.15823674 130.80308078 -25.15770912 135.17334747 C-25.15888315 137.25757531 -25.16327227 139.34180407 -25.17104149 141.42601776 C-25.61203321 163.76882976 -25.61203321 163.76882976 -15.33135986 182.9703064 C-6.49685947 191.30355854 4.91837674 192.30530288 16.50360107 192.29916382 C17.42329681 192.30252243 18.34299255 192.30588104 19.29055786 192.30934143 C22.3163388 192.31880222 25.3420641 192.32079218 28.36785889 192.3218689 C30.48384626 192.32508516 32.5998334 192.32844951 34.71582031 192.33195496 C39.14736445 192.33793426 43.57888912 192.33979612 48.01043701 192.33920288 C53.66690549 192.3391014 59.32324805 192.35274479 64.97968674 192.36997509 C69.34994064 192.38113771 73.72016452 192.38312077 78.09043121 192.38259315 C80.17465905 192.38376719 82.25888781 192.3881563 84.3431015 192.39592552 C106.6859135 192.83691724 106.6859135 192.83691724 125.88739014 182.5562439 C134.22064228 173.7217435 135.22238662 162.3065073 135.21624756 150.72128296 C135.21960617 149.80158722 135.22296478 148.88189148 135.22642517 147.93432617 C135.23588596 144.90854523 135.23787592 141.88281994 135.23895264 138.85702515 C135.2421689 136.74103778 135.24553325 134.62505063 135.2490387 132.50906372 C135.255018 128.07751958 135.25687986 123.64599491 135.25628662 119.21444702 C135.25618514 113.55797855 135.26982853 107.90163598 135.28705883 102.2451973 C135.29822145 97.8749434 135.30020451 93.50471951 135.2996769 89.13445282 C135.30085093 87.05022498 135.30524004 84.96599622 135.31300926 82.88178253 C135.75400098 60.53897054 135.75400098 60.53897054 125.47332764 41.3374939 C116.63882724 33.00424175 105.22359104 32.00249741 93.6383667 32.00863647 C92.71867096 32.00527786 91.79897522 32.00191925 90.85140991 31.99845886 C87.82562897 31.98899807 84.79990368 31.98700812 81.77410889 31.9859314 C79.65812152 31.98271513 77.54213437 31.97935078 75.42614746 31.97584534 C70.99460332 31.96986603 66.56307865 31.96800418 62.13153076 31.96859741 C56.47506229 31.9686989 50.81871972 31.95505551 45.16228104 31.9378252 C40.79202714 31.92666258 36.42180325 31.92467952 32.05153656 31.92520714 C29.96730872 31.92403311 27.88307996 31.91964399 25.79886627 31.91187477 C2.19418898 31.40303459 2.19418898 31.40303459 -17.30401611 43.40390015 Z " fill="#000000" transform="translate(328.92901611328125,271.8460998535156)"/>
<path d="M0 0 C1.48811188 -0.0129007 1.48811188 -0.0129007 3.00628662 -0.02606201 C4.63014282 -0.03245193 4.63014282 -0.03245193 6.2868042 -0.03897095 C7.43211609 -0.04714844 8.57742798 -0.05532593 9.75744629 -0.06375122 C13.55466189 -0.08859513 17.35183994 -0.10512485 21.14910889 -0.11953735 C22.44937767 -0.12486103 23.74964645 -0.13018471 25.08931732 -0.13566971 C30.56243418 -0.15690333 36.03553893 -0.17602911 41.50868607 -0.1872921 C49.3139195 -0.20346583 57.11864996 -0.23647748 64.9236939 -0.29369295 C70.43056043 -0.33266053 75.93729409 -0.35195687 81.44429469 -0.35721266 C84.72247276 -0.36083356 87.99999743 -0.37507974 91.27805328 -0.4053154 C114.73210685 -0.60918665 132.06976376 2.15631543 149.78973389 18.7828064 C161.8615664 31.33007067 167.37598169 46.74226136 167.36151123 63.87142944 C167.36822845 65.02214432 167.37494568 66.17285919 167.38186646 67.35844421 C167.40080493 71.14838018 167.40476879 74.93813861 167.40692139 78.7281189 C167.4117256 80.70602914 167.41653374 82.68393941 167.42184222 84.66184837 C167.43808605 90.87885716 167.44301499 97.09580811 167.44158936 103.31283569 C167.44039005 109.69421592 167.46145859 116.07525679 167.49307668 122.45655125 C167.51936697 127.96176935 167.52995129 133.46687751 167.52867854 138.97215778 C167.52817246 142.24838388 167.5355425 145.5242435 167.55503464 148.80042076 C167.57478705 152.46369363 167.56881913 156.12610941 167.55682373 159.78939819 C167.56806274 160.85217987 167.57930176 161.91496155 167.59088135 163.00994873 C167.4502825 180.03819053 159.8192377 195.52548411 147.96160889 207.4937439 C134.98291953 219.43764586 119.71728606 224.46931496 102.40765381 224.42855835 C100.70821373 224.43622475 100.70821373 224.43622475 98.97444153 224.44404602 C95.25005731 224.45788194 91.52585942 224.4569896 87.80145264 224.4546814 C85.19747347 224.45857186 82.59349493 224.46290726 79.98951721 224.46766663 C74.53838466 224.47585806 69.08730398 224.4749864 63.63616943 224.46957397 C57.3632976 224.46354071 51.09065044 224.47583652 44.81781691 224.49714404 C38.7507001 224.51698397 32.6836872 224.51992191 26.61654091 224.51640892 C24.05028061 224.51692016 21.48401658 224.52212059 18.91777611 224.53222084 C15.31917719 224.54464598 11.72108915 224.53775656 8.12249756 224.5262146 C7.07639313 224.53385834 6.0302887 224.54150208 4.95248413 224.54937744 C-12.54702499 224.42618194 -28.00082527 217.39904883 -40.27276611 205.0640564 C-49.49926843 194.95560901 -57.0067789 181.24312645 -57.07618713 167.20469666 C-57.08334244 166.20828659 -57.09049774 165.21187653 -57.09786987 164.18527222 C-57.10055878 163.09798828 -57.10324768 162.01070435 -57.10601807 160.89047241 C-57.11258926 159.74034164 -57.11916046 158.59021088 -57.12593079 157.40522766 C-57.14566165 153.59358656 -57.15732847 149.78198494 -57.16729736 145.9703064 C-57.17137289 144.66629316 -57.17544842 143.36227993 -57.17964745 142.01875114 C-57.19869614 135.82348282 -57.21292296 129.62822631 -57.22125942 123.43293434 C-57.2310048 116.31002967 -57.25725437 109.187438 -57.29776031 102.06464344 C-57.32807152 96.54253445 -57.34274273 91.02051433 -57.34604043 85.49832386 C-57.3483756 82.20860272 -57.35915204 78.91928936 -57.3825016 75.62964058 C-57.40700871 71.94680476 -57.40590593 68.26477209 -57.39898682 64.58187866 C-57.41179688 63.51281281 -57.42460693 62.44374695 -57.43780518 61.34228516 C-57.32023114 44.04116817 -49.65443621 29.18268197 -37.80010986 16.95858765 C-28.01225921 7.74855286 -13.71479066 0.08881709 0 0 Z M-17.30401611 43.40390015 C-24.24077113 52.28609071 -25.08003606 62.72366742 -25.07427979 73.58651733 C-25.0776384 74.50621307 -25.08099701 75.42590881 -25.0844574 76.37347412 C-25.09391819 79.39925506 -25.09590814 82.42498036 -25.09698486 85.45077515 C-25.10020113 87.56676251 -25.10356548 89.68274966 -25.10707092 91.79873657 C-25.11305023 96.23028071 -25.11491208 100.66180538 -25.11431885 105.09335327 C-25.11421736 110.74982175 -25.12786075 116.40616431 -25.14509106 122.062603 C-25.15625368 126.4328569 -25.15823674 130.80308078 -25.15770912 135.17334747 C-25.15888315 137.25757531 -25.16327227 139.34180407 -25.17104149 141.42601776 C-25.61203321 163.76882976 -25.61203321 163.76882976 -15.33135986 182.9703064 C-6.49685947 191.30355854 4.91837674 192.30530288 16.50360107 192.29916382 C17.42329681 192.30252243 18.34299255 192.30588104 19.29055786 192.30934143 C22.3163388 192.31880222 25.3420641 192.32079218 28.36785889 192.3218689 C30.48384626 192.32508516 32.5998334 192.32844951 34.71582031 192.33195496 C39.14736445 192.33793426 43.57888912 192.33979612 48.01043701 192.33920288 C53.66690549 192.3391014 59.32324805 192.35274479 64.97968674 192.36997509 C69.34994064 192.38113771 73.72016452 192.38312077 78.09043121 192.38259315 C80.17465905 192.38376719 82.25888781 192.3881563 84.3431015 192.39592552 C106.6859135 192.83691724 106.6859135 192.83691724 125.88739014 182.5562439 C134.22064228 173.7217435 135.22238662 162.3065073 135.21624756 150.72128296 C135.21960617 149.80158722 135.22296478 148.88189148 135.22642517 147.93432617 C135.23588596 144.90854523 135.23787592 141.88281994 135.23895264 138.85702515 C135.2421689 136.74103778 135.24553325 134.62505063 135.2490387 132.50906372 C135.255018 128.07751958 135.25687986 123.64599491 135.25628662 119.21444702 C135.25618514 113.55797855 135.26982853 107.90163598 135.28705883 102.2451973 C135.29822145 97.8749434 135.30020451 93.50471951 135.2996769 89.13445282 C135.30085093 87.05022498 135.30524004 84.96599622 135.31300926 82.88178253 C135.75400098 60.53897054 135.75400098 60.53897054 125.47332764 41.3374939 C116.63882724 33.00424175 105.22359104 32.00249741 93.6383667 32.00863647 C92.71867096 32.00527786 91.79897522 32.00191925 90.85140991 31.99845886 C87.82562897 31.98899807 84.79990368 31.98700812 81.77410889 31.9859314 C79.65812152 31.98271513 77.54213437 31.97935078 75.42614746 31.97584534 C70.99460332 31.96986603 66.56307865 31.96800418 62.13153076 31.96859741 C56.47506229 31.9686989 50.81871972 31.95505551 45.16228104 31.9378252 C40.79202714 31.92666258 36.42180325 31.92467952 32.05153656 31.92520714 C29.96730872 31.92403311 27.88307996 31.91964399 25.79886627 31.91187477 C2.19418898 31.40303459 2.19418898 31.40303459 -17.30401611 43.40390015 Z " fill="#000000" transform="translate(72.92901611328125,15.846099853515625)"/>
<path d="M0 0 C0.69551971 -0.00145523 1.39103943 -0.00291046 2.1076355 -0.00440979 C3.57505492 -0.00275722 5.04249283 0.00873207 6.50976562 0.02954102 C8.71562557 0.05824807 10.91903713 0.05018723 13.125 0.03710938 C32.49467662 0.064801 47.836691 6.05218287 61.8046875 19.62109375 C71.33586127 29.72991441 76.08817885 42.26231132 79.6171875 55.49609375 C80.09929687 55.07457031 80.58140625 54.65304688 81.078125 54.21875 C82.02558594 53.39697266 82.02558594 53.39697266 82.9921875 52.55859375 C83.61867188 52.01332031 84.24515625 51.46804687 84.890625 50.90625 C89.40284024 47.22093394 95.06759919 47.98035976 100.6171875 48.49609375 C105.50184 50.76396813 108.34931312 53.61144125 110.6171875 58.49609375 C111.45182386 64.69624955 111.61550644 69.50939825 107.96325684 74.77380371 C105.23609844 78.26319138 102.06582162 81.33095409 98.9296875 84.44921875 C98.19016846 85.19065125 97.45064941 85.93208374 96.6887207 86.69598389 C95.13120075 88.25485971 93.57117275 89.81123326 92.00878906 91.36523438 C89.61810189 93.74518347 87.23830566 96.13564954 84.859375 98.52734375 C83.34178695 100.0436107 81.82357888 101.55925739 80.3046875 103.07421875 C79.59417236 103.78878235 78.88365723 104.50334595 78.15161133 105.23956299 C77.48411865 105.90075134 76.81662598 106.5619397 76.12890625 107.24316406 C75.54584717 107.82463196 74.96278809 108.40609985 74.36206055 109.00518799 C70.65288726 112.17448895 67.57190995 112.8096469 62.7421875 112.87109375 C61.73414063 112.89945312 60.72609375 112.9278125 59.6875 112.95703125 C52.52209821 111.88130935 47.55448976 105.72704599 42.6640625 100.80859375 C41.55191376 99.69931519 41.55191376 99.69931519 40.41729736 98.56762695 C38.85842154 97.010107 37.30204799 95.450079 35.74804688 93.88769531 C33.36809778 91.49700814 30.97763171 89.11721191 28.5859375 86.73828125 C27.06967055 85.2206932 25.55402386 83.70248513 24.0390625 82.18359375 C23.3244989 81.47307861 22.6099353 80.76256348 21.87371826 80.03051758 C21.21252991 79.3630249 20.55134155 78.69553223 19.87011719 78.0078125 C19.28864929 77.42475342 18.7071814 76.84169434 18.10809326 76.2409668 C14.15838266 71.61844554 14.19001369 67.30152322 14.3046875 61.41015625 C14.87320906 56.10869274 17.39584534 53.6563688 21.1171875 50.12109375 C26.26234492 47.73227066 31.0371085 47.70329564 36.6171875 48.49609375 C39.12672608 49.57426588 40.55242755 50.66075157 42.6171875 52.49609375 C38.78997405 43.61695855 33.89824095 39.2050305 25.12109375 35.2578125 C17.26190377 32.86695127 8.71270125 33.23600855 0.57421875 33.15429688 C-6.9739702 32.93106983 -10.49281374 31.53819771 -15.7578125 25.99609375 C-18.15584825 20.83109366 -18.13662785 16.09586495 -17.3828125 10.49609375 C-13.845802 2.87791729 -8.19648855 -0.01191501 0 0 Z " fill="#000000" transform="translate(305.3828125,111.50390625)"/>
<path d="M0 0 C1.00804687 -0.02835937 2.01609375 -0.05671875 3.0546875 -0.0859375 C10.22008929 0.9897844 15.18769774 7.14404776 20.078125 12.0625 C20.8195575 12.80201904 21.56098999 13.54153809 22.32489014 14.3034668 C23.88376596 15.86098675 25.44013951 17.42101475 26.99414062 18.98339844 C29.37408972 21.37408561 31.76455579 23.75388184 34.15625 26.1328125 C35.67251695 27.65040055 37.18816364 29.16860862 38.703125 30.6875 C39.4176886 31.39801514 40.1322522 32.10853027 40.86846924 32.84057617 C41.52965759 33.50806885 42.19084595 34.17556152 42.87207031 34.86328125 C43.45353821 35.44634033 44.0350061 36.02939941 44.63409424 36.63012695 C48.58380484 41.25264821 48.55217381 45.56957053 48.4375 51.4609375 C47.86897844 56.76240101 45.34634216 59.21472495 41.625 62.75 C36.47984258 65.13882309 31.705079 65.16779811 26.125 64.375 C23.61546142 63.29682787 22.18975995 62.21034218 20.125 60.375 C23.95221345 69.2541352 28.84394655 73.66606325 37.62109375 77.61328125 C45.48028373 80.00414248 54.02948625 79.6350852 62.16796875 79.71679688 C69.7161577 79.94002392 73.23500124 81.33289604 78.5 86.875 C80.89803575 92.04000009 80.87881535 96.7752288 80.125 102.375 C77.81576856 107.34872925 74.85013441 109.70291022 70.125 112.375 C66.58911133 112.87670898 66.58911133 112.87670898 62.70703125 112.87109375 C62.00913986 112.87254898 61.31124847 112.87400421 60.59220886 112.87550354 C59.1205934 112.87385116 57.64895946 112.862364 56.17749023 112.84155273 C53.96065062 112.81280026 51.74623995 112.82091598 49.52929688 112.83398438 C30.51832044 112.80503514 15.25763283 106.39941614 1.2578125 93.5703125 C-8.66925017 83.3523469 -13.38644739 70.90044979 -16.875 57.375 C-17.59816406 58.00728516 -17.59816406 58.00728516 -18.3359375 58.65234375 C-18.96757813 59.20019531 -19.59921875 59.74804688 -20.25 60.3125 C-20.87648438 60.85777344 -21.50296875 61.40304687 -22.1484375 61.96484375 C-26.66065274 65.65015981 -32.32541169 64.89073399 -37.875 64.375 C-42.7596525 62.10712562 -45.60712562 59.2596525 -47.875 54.375 C-48.70963636 48.1748442 -48.87331894 43.3616955 -45.22106934 38.09729004 C-42.49391094 34.60790237 -39.32363412 31.54013966 -36.1875 28.421875 C-35.44798096 27.6804425 -34.70846191 26.93901001 -33.9465332 26.17510986 C-32.38901325 24.61623404 -30.82898525 23.05986049 -29.26660156 21.50585938 C-26.87591439 19.12591028 -24.49611816 16.73544421 -22.1171875 14.34375 C-20.59959945 12.82748305 -19.08139138 11.31183636 -17.5625 9.796875 C-16.85198486 9.0823114 -16.14146973 8.3677478 -15.40942383 7.63153076 C-14.74193115 6.97034241 -14.07443848 6.30915405 -13.38671875 5.62792969 C-12.80365967 5.04646179 -12.22060059 4.4649939 -11.61987305 3.86590576 C-7.91069976 0.6966048 -4.82972245 0.06144685 0 0 Z " fill="#000000" transform="translate(143.875,287.625)"/>
</svg>
