<?xml version="1.0" encoding="UTF-8"?>
<svg version="1.1" xmlns="http://www.w3.org/2000/svg" width="512" height="512">
<path d="M0 0 C0.69116335 -0.00170885 1.38232669 -0.0034177 2.09443438 -0.00517833 C4.39758711 -0.00845807 6.70044491 0.00250517 9.00357056 0.01345825 C10.65960686 0.01402269 12.31564367 0.01370516 13.97167969 0.01257324 C18.4588286 0.01200002 22.94587033 0.02374944 27.43299437 0.03772116 C32.12551039 0.05023355 36.81802895 0.05139942 41.51055908 0.05377197 C50.39270753 0.05998524 59.27480668 0.076394 68.15693343 0.09647095 C78.27053707 0.1188347 88.38414308 0.12982458 98.4977653 0.13986182 C119.29871878 0.16076035 140.09962789 0.19593337 160.90054321 0.24050903 C160.81162811 0.91419022 160.72271301 1.5878714 160.63110352 2.28196716 C160.22388467 5.38862817 159.82389669 8.49618109 159.42398071 11.60379028 C159.28403687 12.66311768 159.14409302 13.72244507 158.99990845 14.81387329 C154.05646127 53.50785247 164.0778518 92.83645131 187.77554321 123.92800903 C206.14325883 147.33972718 228.54874947 162.72952248 255.90054321 174.24050903 C253.01744281 179.57804744 249.71800517 184.23689901 245.96304321 188.99050903 C240.99901336 195.38273343 236.24113067 201.88724211 231.65054321 208.55300903 C231.08988159 209.35899536 230.52921997 210.16498169 229.9515686 210.99539185 C229.43457397 211.75303833 228.91757935 212.51068481 228.38491821 213.29129028 C227.92826782 213.95813843 227.47161743 214.62498657 227.00112915 215.31204224 C224.21318217 220.1971339 224.56083321 225.87074885 224.33755493 231.3430481 C224.29516127 232.35939457 224.2527676 233.37574104 224.20908928 234.42288589 C223.79779193 245.30902858 223.81581454 256.18601095 223.88650894 267.07802582 C223.90900047 270.70382335 223.92276798 274.32956534 223.9342041 277.95541382 C223.96738634 288.24453145 224.00970269 298.53355474 224.07192993 308.82254028 C224.10967472 315.16437801 224.13262043 321.50612724 224.14623642 327.84806061 C224.15424567 330.24491121 224.16778992 332.64175042 224.18716812 335.03853607 C224.21379788 338.38429199 224.22155257 341.72962082 224.22525024 345.07546997 C224.23760712 346.04707062 224.24996399 347.01867126 224.26269531 348.01971436 C224.22813613 359.9435425 221.26814127 368.70051989 212.90054321 377.24050903 C203.76277007 385.81935722 193.53378324 393.06470905 183.40737915 400.415802 C180.04464222 402.86351293 176.69851052 405.33338147 173.35293579 407.80447388 C170.96068691 409.57109431 168.56576029 411.33402198 166.17007446 413.09597778 C163.59938242 414.98704206 161.03343381 416.88400052 158.47476196 418.79129028 C157.52214478 419.49640747 156.56952759 420.20152466 155.58804321 420.92800903 C154.8081604 421.50937622 154.02827759 422.09074341 153.22476196 422.68972778 C145.79569347 427.64660206 139.68803059 428.11623802 130.90054321 427.24050903 C124.23931881 425.54589355 119.71990504 420.78374498 115.90054321 415.24050903 C113.82521515 411.04275136 113.64385676 407.53538008 113.62879944 402.87976074 C113.6237126 402.14821042 113.61862577 401.41666009 113.61338478 400.66294158 C113.59874565 398.21657567 113.5981909 395.77041173 113.5975647 393.32400513 C113.58990154 391.56773488 113.58135479 389.8114683 113.57199097 388.0552063 C113.55371839 384.27440361 113.54167566 380.49365032 113.53445244 376.71281052 C113.52295438 370.72765502 113.49748981 364.74260837 113.47013855 358.75750732 C113.42848299 349.28285842 113.39607731 339.80820422 113.3676644 330.33350718 C113.31675135 313.38831785 113.254304 296.44317538 113.18232399 279.49806273 C113.15750096 273.55594683 113.13802377 267.61384476 113.12294185 261.67169642 C113.11268371 257.96294699 113.09853651 254.25421914 113.08346558 250.54548645 C113.07734819 248.83434691 113.07286771 247.12320056 113.0702076 245.41205215 C113.04314177 228.93163697 112.71335357 218.01691275 102.58804321 204.55300903 C101.32232559 202.85255714 100.05670326 201.15203431 98.79116821 199.45144653 C98.14470337 198.58616333 97.49823853 197.72088013 96.83218384 196.82937622 C93.81856292 192.79039288 90.82740192 188.73496584 87.83804321 184.67800903 C87.26030151 183.89490356 86.68255981 183.1117981 86.08731079 182.30496216 C82.1148028 176.91270904 78.18619975 171.49023228 74.27554321 166.05300903 C70.21086643 160.40187807 66.09372101 154.79695207 61.90054321 149.24050903 C57.14622012 142.94048392 52.50284461 136.56753196 47.8944397 130.16018677 C42.21498007 122.27059781 36.44380024 114.44982154 30.66665649 106.63162231 C27.74098219 102.67059741 24.82104016 98.70535186 21.90054321 94.74050903 C20.73390431 93.15715524 19.56723764 91.57382191 18.40054321 89.99050903 C16.06720988 86.82384237 13.73387655 83.6571757 11.40054321 80.49050903 C10.82264038 79.70627563 10.24473755 78.92204224 9.64932251 78.11404419 C8.48648039 76.53577376 7.32388143 74.95732413 6.16152954 73.37869263 C3.18834862 69.34136887 0.21058887 65.30755396 -2.77523804 61.27957153 C-5.70842809 57.32041035 -8.62969149 53.35279906 -11.53793335 49.37527466 C-12.53464557 48.01266495 -13.53375352 46.65180224 -14.53598022 45.29324341 C-25.63682267 30.19480028 -25.63682267 30.19480028 -25.03695679 20.67800903 C-23.82040192 13.32745648 -20.72064562 8.25564079 -15.07601929 3.46707153 C-10.25920934 0.47798394 -5.57225797 -0.00832923 0 0 Z " fill="#000000" transform="translate(55.099456787109375,84.75949096679688)"/>
<path d="M0 0 C0.6712088 0.00304138 1.3424176 0.00608276 2.03396606 0.00921631 C13.33387005 0.08454565 23.93891936 1.07433904 34.75 4.4375 C35.42981934 4.64648926 36.10963867 4.85547852 36.81005859 5.07080078 C67.00971394 14.69518366 92.8811574 35.09330513 107.90795898 63.12817383 C114.41408735 75.74700805 119.14689787 89.29731709 120.75 103.4375 C120.87117187 104.241875 120.99234375 105.04625 121.1171875 105.875 C125.01362338 136.2862069 115.61110721 168.62717593 97.03320312 192.83886719 C76.51054345 218.40629024 48.45114062 235.36301305 15.75 239.4375 C-18.12301598 241.81538257 -50.33434174 233.91616296 -76.61914062 211.85742188 C-99.22391223 192.1763812 -113.72816456 166.10074051 -118.25 136.4375 C-118.38019531 135.66921875 -118.51039063 134.9009375 -118.64453125 134.109375 C-122.37554691 108.04201227 -115.83540362 82.16027362 -103.25 59.4375 C-102.71761719 58.47328125 -102.18523437 57.5090625 -101.63671875 56.515625 C-86.14477042 30.52913102 -59.45073683 10.98365733 -30.25 3.4375 C-20.06544369 0.97119973 -10.51254963 -0.08349078 0 0 Z M-39.6875 83.1875 C-41.56986143 87.10281177 -42.6114272 90.08666097 -42.25 94.4375 C-39.30883463 101.27416437 -33.689 106.35767519 -28.4375 111.4375 C-27.64923828 112.21222656 -26.86097656 112.98695312 -26.04882812 113.78515625 C-24.12260283 115.67635927 -22.1897037 117.56014049 -20.25 119.4375 C-23.2963065 123.1098879 -26.34071766 126.6083697 -29.828125 129.8671875 C-30.43140625 130.43566406 -31.0346875 131.00414062 -31.65625 131.58984375 C-32.88991986 132.74248869 -34.13490927 133.88313127 -35.390625 135.01171875 C-39.84660741 139.26602954 -41.96111873 143.19327658 -42.25 149.4375 C-40.75869047 154.70094538 -38.40037306 157.9096829 -34.25 161.4375 C-30.51479263 162.68256912 -27.12930124 162.94381955 -23.25 162.4375 C-20.78962252 161.20731126 -19.2915483 160.19615477 -17.25 158.4375 C-16.47527344 157.78136719 -15.70054687 157.12523437 -14.90234375 156.44921875 C-9.57105516 151.79338754 -4.74651367 146.90180635 -0.25 141.4375 C2.83091433 142.80295786 4.8603618 144.33639805 7.17578125 146.7734375 C7.80806641 147.42570312 8.44035156 148.07796875 9.09179688 148.75 C10.39610569 150.11506453 11.69822519 151.48222462 12.99804688 152.8515625 C17.3967063 157.37946319 21.64220952 161.4556731 27.97265625 162.96875 C33.06939336 162.88218122 35.91815981 161.74681653 39.75 158.4375 C43.41876436 154.28600349 44.20377592 151.12696134 44.28125 145.78125 C42.65201901 138.59346621 36.04577441 133.49949321 31 128.5625 C30.20722656 127.77875 29.41445313 126.995 28.59765625 126.1875 C26.65291853 124.26619286 24.70365247 122.34973453 22.75 120.4375 C27.06970192 115.24615254 31.64298222 110.47229772 36.51367188 105.80078125 C41.18838902 101.2275586 44.4819873 97.13781748 44.75 90.4375 C42.83097728 84.36059473 39.94065336 80.33464524 34.4375 77.0625 C30.61889664 76.17445271 27.43924488 76.19160116 23.75 77.4375 C20.69327236 79.37364853 18.28888913 81.87411998 15.75 84.4375 C14.54495459 85.63089915 13.33916036 86.82354244 12.1328125 88.015625 C8.65083378 91.46904851 5.19587347 94.94806914 1.75 98.4375 C-3.67193797 93.94585136 -8.60331698 89.13597634 -13.44335938 84.02929688 C-17.29765928 80.07295774 -21.020392 77.03242779 -26.625 76 C-32.0167042 76.89861737 -36.06809024 79.10406335 -39.6875 83.1875 Z " fill="#000000" transform="translate(360.25,-0.4375)"/>
</svg>
