<?xml version="1.0" encoding="UTF-8"?>
<svg version="1.1" xmlns="http://www.w3.org/2000/svg" width="512" height="512">
<path d="M0 0 C5.52013044 3.08039076 8.60528998 6.87836995 10.625 12.9375 C10.71709988 14.32430859 10.75511325 15.71510586 10.75807858 17.10496616 C10.76231962 17.95820424 10.76656067 18.81144231 10.77093023 19.69053608 C10.77035103 21.09712 10.77035103 21.09712 10.76976013 22.53211975 C10.7750504 24.02608667 10.7750504 24.02608667 10.78044754 25.55023474 C10.7911621 28.9033675 10.79482036 32.25647189 10.79858398 35.60961914 C10.80488728 38.00760011 10.81165283 40.40557989 10.81884766 42.80355835 C10.83353525 47.97638173 10.8453339 53.14920345 10.85479546 58.32203865 C10.86867292 65.8120124 10.88986252 73.30195246 10.91322399 80.791902 C10.95115423 92.95785833 10.98611263 105.12382079 11.01782227 117.28979492 C11.01972276 118.01817593 11.02162325 118.74655694 11.02358133 119.4970101 C11.05038381 129.82194311 11.07426469 140.14688083 11.09696633 150.47182357 C11.09856363 151.19808224 11.10016094 151.92434091 11.10180664 152.67260742 C11.10340011 153.39797914 11.10499357 154.12335085 11.10663532 154.87070353 C11.13343945 166.98234442 11.16785619 179.09394961 11.20846039 191.20555204 C11.23097262 198.00333244 11.24964769 204.80108164 11.25890923 211.59889412 C11.26785457 217.9969566 11.28583341 224.39492978 11.31067657 230.79294968 C11.3181365 233.13823935 11.3222322 235.48354257 11.32267189 237.82884407 C11.3237589 241.03733172 11.33704722 244.24555287 11.35325623 247.45399475 C11.35063937 248.37610231 11.34802252 249.29820987 11.34532636 250.24826008 C11.44161666 262.50096559 14.52885001 273.32591887 21.875 283.3125 C31.7659025 292.75381602 43.74716598 296.05383493 57.15705872 296.07121277 C57.88285635 296.07347833 58.60865399 296.07574388 59.35644549 296.07807809 C61.77125686 296.0843723 64.18601145 296.08359169 66.60083008 296.08276367 C68.33931042 296.08575802 70.07779011 296.08916119 71.81626892 296.09294128 C76.52712297 296.10175737 81.23795885 296.10411839 85.94882035 296.10475707 C88.89526638 296.10546893 91.84170781 296.10760582 94.78815269 296.11025429 C105.07662625 296.11949978 115.36508688 296.12359017 125.65356445 296.12280273 C135.2289387 296.12220215 144.80425657 296.13275229 154.37961656 296.1485464 C162.61339418 296.16164145 170.84715343 296.16698581 179.08094138 296.16634732 C183.99290843 296.16609292 188.90482536 296.16891252 193.816782 296.17952538 C198.43872603 296.18923945 203.06057235 296.18926291 207.68251991 296.18200874 C209.37312463 296.18096701 211.06373553 296.1833012 212.75432968 296.1893692 C223.68117052 296.22603012 234.02013486 296.24261224 243.9375 291.0625 C245.38576172 290.32386719 245.38576172 290.32386719 246.86328125 289.5703125 C256.27247519 284.00730958 261.53812617 275.29039992 264.625 264.9375 C265.64647035 259.19837552 265.7697086 253.64082721 265.76303101 247.83494568 C265.76585229 246.83272777 265.76867357 245.83050986 265.77158034 244.79792172 C265.77989717 241.44787415 265.78126206 238.09785976 265.78271484 234.74780273 C265.78738504 232.34274198 265.79252894 229.9376821 265.79811096 227.53262329 C265.8093767 222.35767719 265.81786807 217.18273416 265.82423019 212.00778008 C265.83457845 203.82694745 265.85514625 195.6461551 265.87734985 187.46534729 C265.88482848 184.66401972 265.89224232 181.86269197 265.89963722 179.06136417 C265.90241307 178.01141345 265.90241307 178.01141345 265.905245 176.9402516 C265.92615104 168.98141187 265.94499097 161.02256772 265.96289062 153.0637207 C265.96452881 152.33655246 265.96616699 151.60938421 265.96785481 150.86018056 C265.9941611 139.06650815 266.0127953 127.27283262 266.02948253 115.47914325 C266.04690289 103.36286289 266.0757438 91.24664394 266.1143719 79.13041264 C266.1377611 71.66063448 266.15176548 64.19095642 266.15369953 56.72114135 C266.1560581 50.99951538 266.17392395 45.2780198 266.19756889 39.55644608 C266.20477552 37.20947463 266.20685629 34.86248108 266.20346642 32.51550102 C266.19958104 29.31447347 266.21399646 26.11403222 266.23300171 22.91307068 C266.22747201 21.98204023 266.22194232 21.05100979 266.21624506 20.0917663 C266.28314791 13.57496862 267.55416948 9.42249662 271.8125 4.3125 C277.83129451 -0.77003758 282.99114959 -2.7826236 290.94921875 -2.44140625 C297.79496991 -1.47200791 302.06290611 1.83900149 306.3984375 7.05859375 C310.00172254 12.57827561 309.91309584 17.63401181 309.89242554 24.02923584 C309.89695665 25.05465209 309.90148776 26.08006835 309.90615618 27.13655782 C309.9188311 30.57773781 309.91717775 34.01876016 309.91552734 37.45996094 C309.92151099 39.92569686 309.92831616 42.3914309 309.93588257 44.85716248 C309.95173566 50.86536433 309.95799219 56.87350407 309.95910732 62.88172105 C309.96005873 67.77181272 309.96417371 72.66189148 309.97050858 77.55197906 C309.98812734 91.43672329 309.99734749 105.32143662 309.99584763 119.20619211 C309.99576772 119.95460867 309.9956878 120.70302524 309.99560547 121.47412109 C309.99552371 122.22345985 309.99544195 122.9727986 309.99535771 123.74484459 C309.9945466 135.86106611 310.01363818 147.97716277 310.0418822 160.09334823 C310.07069853 172.55424421 310.08441742 185.01507951 310.08269465 197.47600961 C310.08203333 204.46350894 310.0874105 211.45087771 310.10905075 218.43834686 C310.12930747 225.02115373 310.12849985 231.60373385 310.11401749 238.18657112 C310.11193816 240.59182451 310.11657742 242.99709541 310.1287384 245.40231895 C310.26059342 273.30784958 304.65554551 296.43522429 284.609375 317.11328125 C269.85093838 331.56302547 249.15890097 340.08984385 228.57695007 340.08467102 C227.78344188 340.08834771 226.98993369 340.0920244 226.17237979 340.0958125 C223.52205838 340.10679658 220.87177625 340.11068426 218.22143555 340.11450195 C216.31712216 340.12077084 214.41280999 340.12741802 212.50849915 340.13441467 C206.25958094 340.15541586 200.01066262 340.16581691 193.76171875 340.17578125 C191.60448507 340.179831 189.44725151 340.18394798 187.29001808 340.18813133 C177.14789208 340.2071784 167.0057733 340.22140756 156.86363286 340.2297433 C145.18918262 340.23949869 133.51492283 340.26577587 121.84053963 340.30624419 C112.79733874 340.33650615 103.75419212 340.3512219 94.71094161 340.35452431 C89.31968174 340.35686429 83.92862543 340.36568608 78.53742027 340.39098549 C73.45576638 340.41444664 68.37444745 340.41842768 63.29275322 340.40822411 C61.44059884 340.40773291 59.58842695 340.41392853 57.73632431 340.42778015 C31.74170625 340.61110932 9.47309492 333.36441369 -9.55078125 314.921875 C-24.81364779 299.33294519 -32.52630437 278.22095416 -32.52217102 256.66494751 C-32.52584771 255.63232674 -32.5295244 254.59970597 -32.5333125 253.53579366 C-32.54432289 250.07675451 -32.54818864 246.61774543 -32.55200195 243.15869141 C-32.55826841 240.67820643 -32.56491537 238.19772239 -32.57191467 235.71723938 C-32.59111537 228.2772975 -32.60173672 220.83736361 -32.61064246 213.39740425 C-32.61503126 209.89083427 -32.62039634 206.38426579 -32.62563133 202.87769699 C-32.64263478 191.21776709 -32.65712997 179.55783811 -32.66438007 167.89789772 C-32.66628983 164.8756167 -32.66821019 161.85333568 -32.67016602 158.83105469 C-32.67064976 158.07992064 -32.6711335 157.3287866 -32.6716319 156.55489092 C-32.6799363 144.38092731 -32.70528407 132.20706183 -32.73774669 120.03314109 C-32.77082561 107.52593329 -32.78882937 95.01877538 -32.79202431 82.5115236 C-32.79418808 75.49245952 -32.80291768 68.47353876 -32.82848549 61.45451736 C-32.85247535 54.85368012 -32.85601304 48.25305442 -32.84572411 41.65216637 C-32.84522787 39.2302267 -32.85157403 36.80827446 -32.86528015 34.38637352 C-32.88295194 31.0786121 -32.87591533 27.77178163 -32.86274719 24.46401978 C-32.87371644 23.50700531 -32.88468568 22.54999084 -32.89598733 21.56397593 C-32.82885832 14.57384059 -31.24344973 9.26156478 -26.62890625 3.9140625 C-26.07074219 3.46804687 -25.51257813 3.02203125 -24.9375 2.5625 C-24.38191406 2.10101563 -23.82632813 1.63953125 -23.25390625 1.1640625 C-16.04505584 -3.54192301 -7.71848698 -3.50735432 0 0 Z " fill="#000000" transform="translate(117.375,151.0625)"/>
<path d="M0 0 C1.17329361 -0.00852997 2.34658722 -0.01705994 3.55543518 -0.02584839 C5.47327316 -0.02448883 5.47327316 -0.02448883 7.42985535 -0.02310181 C8.79690924 -0.02908958 10.16395976 -0.0358957 11.53100586 -0.04345703 C15.23775843 -0.06110019 18.94441861 -0.06581173 22.65120912 -0.0670886 C24.96947514 -0.06851186 27.2877178 -0.07278477 29.60597801 -0.07808304 C37.70060589 -0.09657859 45.79516797 -0.10475435 53.88981628 -0.10317993 C61.42375899 -0.10197904 68.95741497 -0.12307207 76.49128515 -0.15466726 C82.96875342 -0.18085975 89.44612822 -0.19154597 95.92364901 -0.19026911 C99.78826049 -0.1897603 103.65261715 -0.19539844 107.51717567 -0.21662521 C111.1542841 -0.23605771 114.79089596 -0.23609842 118.42802238 -0.22159195 C120.38977858 -0.21851989 122.35153508 -0.2351457 124.31321716 -0.25247192 C132.94621043 -0.19118841 138.57927141 0.78815232 144.95011902 7.01742554 C149.86440834 14.31865539 150.56819285 20.53607425 150.43058777 29.11117554 C150.42634293 30.12087402 150.42209808 31.13057251 150.41772461 32.17086792 C150.40104116 35.3700011 150.36340805 38.56848537 150.32511902 41.76742554 C150.31005883 43.94710389 150.29637277 46.12679219 150.28410339 48.30648804 C150.25117164 53.62701889 150.20107638 58.94717583 150.13761902 64.26742554 C151.79560013 64.25077095 151.79560013 64.25077095 153.48707581 64.23377991 C163.93233179 64.13217374 174.37748676 64.05734989 184.82312584 64.00836468 C190.19265303 63.98233363 195.56177946 63.94705435 200.93107605 63.89022827 C206.11824578 63.83567681 211.3050314 63.80595622 216.49246597 63.79303932 C218.4659339 63.78384087 220.43938215 63.76587864 222.41268539 63.73877525 C243.00161955 63.46737672 243.00161955 63.46737672 250.13761902 69.26742554 C255.94997794 75.48802773 256.60730207 81.44196935 256.54777527 89.67367554 C255.85570612 95.73751948 253.08050696 99.74091743 248.50871277 103.66586304 C244.13812578 106.75484933 240.49530937 107.39289839 235.26227283 107.40164661 C233.41103045 107.40833338 233.41103045 107.40833338 231.52238923 107.41515523 C230.14541931 107.41506593 228.76844939 107.41487607 227.39147949 107.41459656 C225.93441154 107.41789519 224.4773445 107.42162076 223.02027863 107.42573804 C219.00634308 107.43576624 214.99242248 107.43947615 210.97847617 107.44212735 C206.65317563 107.44602796 202.32788696 107.45560646 198.00259399 107.46434021 C187.55210504 107.4841114 177.1016151 107.49417162 166.65111211 107.503068 C161.73142911 107.50744979 156.81174719 107.51281688 151.89206505 107.51805687 C135.54075119 107.53506974 119.189438 107.54956435 102.83811665 107.55680561 C98.59395662 107.55871555 94.3497966 107.56063587 90.1056366 107.56259155 C88.52331263 107.56331716 88.52331263 107.56331716 86.90902253 107.56405743 C69.81708833 107.57235937 52.72522408 107.59769879 35.63332043 107.63017223 C18.0908729 107.66323032 0.54846094 107.68125324 -16.9940179 107.68444985 C-26.84568259 107.6866161 -36.69724527 107.69538152 -46.54887962 107.72091103 C-54.93829227 107.74260094 -63.32757814 107.75067687 -71.71701565 107.74094424 C-75.99751494 107.73639459 -80.27775256 107.73832431 -84.55821609 107.75770569 C-88.4784771 107.77530282 -92.39828486 107.77436795 -96.31855045 107.7588084 C-97.73515374 107.75642706 -99.15178814 107.76078322 -100.56834384 107.77263705 C-108.43262432 107.8343584 -114.17831929 107.60650532 -120.86238098 103.26742554 C-122.92097473 101.23226929 -122.92097473 101.23226929 -124.29988098 99.20492554 C-125.00950989 98.19752319 -125.00950989 98.19752319 -125.73347473 97.16976929 C-128.95668047 91.73827726 -128.27604113 85.36703253 -127.86238098 79.26742554 C-125.81060311 73.22008024 -121.83822041 69.16821455 -116.25971985 66.14736938 C-111.67678602 63.92553452 -107.72076051 63.72435726 -102.69245911 63.81332397 C-101.37397476 63.81244781 -101.37397476 63.81244781 -100.02885437 63.81155396 C-97.15003188 63.81432027 -94.27227052 63.8453428 -91.39363098 63.87680054 C-89.38724839 63.88426811 -87.38085846 63.8899586 -85.37446594 63.89395142 C-80.1135975 63.90916708 -74.85317624 63.94841377 -69.59248352 63.99276733 C-64.21636503 64.03380796 -58.84017373 64.05198117 -53.46394348 64.07211304 C-42.92989368 64.11491201 -32.39617463 64.18311389 -21.86238098 64.26742554 C-21.87204769 63.65241369 -21.8817144 63.03740185 -21.89167404 62.40375328 C-21.98095336 56.65710337 -22.03881109 50.91059302 -22.08210754 45.16342163 C-22.10212488 43.000581 -22.12934728 40.83779381 -22.16413879 38.67514038 C-22.21309345 35.55212147 -22.23544915 32.42982293 -22.25300598 29.30648804 C-22.27365112 28.35190704 -22.29429626 27.39732605 -22.31556702 26.41381836 C-22.31795611 19.13718896 -21.13086459 11.90681747 -16.11195374 6.31835938 C-11.24633367 1.8453722 -6.63953432 0.02187287 0 0 Z M22.13761902 43.26742554 C22.13761902 50.19742554 22.13761902 57.12742554 22.13761902 64.26742554 C49.85761902 64.26742554 77.57761902 64.26742554 106.13761902 64.26742554 C106.13761902 57.33742554 106.13761902 50.40742554 106.13761902 43.26742554 C78.41761902 43.26742554 50.69761902 43.26742554 22.13761902 43.26742554 Z " fill="#000000" transform="translate(191.8623809814453,20.732574462890625)"/>
<path d="M0 0 C5.194153 3.13220191 9.15117399 7.40031411 11.44140625 13.05859375 C11.70426178 16.08689404 11.70426178 16.08689404 11.72229004 19.7051239 C11.72823228 20.3718941 11.73417453 21.03866429 11.74029684 21.72563964 C11.75763224 23.95866428 11.76068394 26.19147398 11.76367188 28.42456055 C11.77293114 30.02629554 11.78298085 31.62802612 11.79376221 33.22975159 C11.81998974 37.58121825 11.83289648 41.93262322 11.84178352 46.28415656 C11.84764935 49.0046145 11.85585987 51.72505566 11.86479187 54.44550514 C11.89213869 62.96232197 11.91147252 71.47910034 11.91919565 79.99595803 C11.92815153 89.81762832 11.96322283 99.63874116 12.02119684 109.46024197 C12.06448204 117.05786417 12.08460699 124.65532984 12.08727789 132.25307399 C12.08937068 136.78798506 12.10111307 141.32237202 12.13691711 145.85715294 C12.1699684 150.1263667 12.17414794 154.394665 12.1566391 158.66396141 C12.15510294 160.22600259 12.16372374 161.78809388 12.1835556 163.35000992 C12.29011532 172.26957762 11.94683006 179.34475202 5.44140625 186.05859375 C-1.1790886 191.73458861 -8.20009549 191.62544628 -16.55859375 191.05859375 C-22.64285878 188.99428954 -26.18499291 185.14388264 -29.6736908 179.84762573 C-32.73234869 173.51118483 -32.12479831 166.49461527 -32.09204102 159.62158203 C-32.09910688 158.0602843 -32.1078547 156.49899341 -32.1181488 154.93771362 C-32.1405799 150.71439708 -32.13771758 146.49145642 -32.12882733 142.26810312 C-32.12370292 138.73448188 -32.13102192 135.20093037 -32.13829941 131.66731632 C-32.15527906 123.32648825 -32.1517528 114.98584322 -32.13500977 106.64501953 C-32.11809549 98.05841272 -32.13391767 89.47231455 -32.16623265 80.88576329 C-32.19298008 73.4969337 -32.20019052 66.10826195 -32.19171757 58.71938884 C-32.1868027 54.31371768 -32.1889253 49.90835231 -32.20950508 45.50271988 C-32.22794313 41.35740934 -32.22180541 37.21282658 -32.19730568 33.06755447 C-32.19232312 31.55272275 -32.19572072 30.0378348 -32.20845413 28.5230484 C-32.27556918 19.84765668 -31.88734076 12.29072314 -26.55859375 5.05859375 C-19.53968744 -1.57872687 -9.11556859 -3.35397256 0 0 Z " fill="#000000" transform="translate(308.55859375,192.94140625)"/>
<path d="M0 0 C1.19367188 -0.01675781 2.38734375 -0.03351563 3.6171875 -0.05078125 C9.96570516 0.6066933 14.06990363 3.5104122 18.125 8.3125 C23.02733314 15.75482278 22.69947772 23.1406306 22.65844727 31.74951172 C22.66551313 33.31080945 22.67426095 34.87210034 22.68455505 36.43338013 C22.70698615 40.65669667 22.70412383 44.87963733 22.69523358 49.10299063 C22.69010917 52.63661187 22.69742817 56.17016338 22.70470566 59.70377743 C22.72168531 68.0446055 22.71815905 76.38525053 22.70141602 84.72607422 C22.68450174 93.31268103 22.70032392 101.8987792 22.7326389 110.48533046 C22.75938633 117.87416005 22.76659677 125.2628318 22.75812382 132.65170491 C22.75320895 137.05737607 22.75533155 141.46274144 22.77591133 145.86837387 C22.79434938 150.01368441 22.78821166 154.15826717 22.76371193 158.30353928 C22.75872937 159.818371 22.76212697 161.33325895 22.77486038 162.84804535 C22.84197543 171.52343707 22.45374701 179.08037061 17.125 186.3125 C11.10415518 192.00601915 5.40721725 192.67962988 -2.578125 192.58203125 C-8.19609236 192.12274245 -11.84044574 190.52998567 -15.65625 186.37109375 C-19.74042131 181.14065738 -20.99753541 177.50919325 -21.02890015 170.81745911 C-21.0332824 170.15492132 -21.03766465 169.49238354 -21.0421797 168.80976886 C-21.05555588 166.58517179 -21.06174391 164.36061433 -21.06787109 162.13598633 C-21.07577305 160.54263124 -21.08404206 158.94927794 -21.09265137 157.35592651 C-21.1188627 152.11881212 -21.13417907 146.88168978 -21.1484375 141.64453125 C-21.15379772 139.84092389 -21.15917524 138.03731659 -21.16456985 136.23370934 C-21.18619812 128.73012008 -21.20493407 121.22653296 -21.21619225 113.72292042 C-21.23242644 102.973845 -21.26559188 92.22513134 -21.32259309 81.4761923 C-21.36131569 73.91598438 -21.38082773 66.35587312 -21.38611281 58.79556865 C-21.38976337 54.28140799 -21.40175283 49.76763326 -21.43421555 45.25358009 C-21.46433681 41.00418074 -21.47059376 36.75539999 -21.45883179 32.5059166 C-21.45861138 30.94990798 -21.46688906 29.39387033 -21.48448563 27.8379612 C-21.64811455 12.53123724 -21.64811455 12.53123724 -15.875 6.3125 C-10.73818103 1.55154583 -7.01294988 0.02262242 0 0 Z " fill="#000000" transform="translate(212.875,191.6875)"/>
</svg>
