<?xml version="1.0" encoding="UTF-8"?>
<svg version="1.1" xmlns="http://www.w3.org/2000/svg" width="512" height="512">
<path d="M0 0 C3.66821269 2.95083081 7.06586431 6.10315272 10.39941406 9.41845703 C12.11621875 11.11483604 13.86459952 12.77424827 15.6171875 14.43359375 C29.00043742 27.24877005 38.77697351 41.6348185 39.29296875 60.80957031 C39.4599691 79.00425849 33.59782856 93.29044857 21.09896851 106.50914001 C20.49897738 107.14728384 19.89898625 107.78542766 19.28081357 108.44290918 C10.49417323 117.72207905 1.42329246 126.72635106 -7.614362 135.75974572 C-10.36317858 138.5083553 -13.10911454 141.25984051 -15.85546875 144.01091003 C-21.21351973 149.37719998 -26.57428112 154.74077401 -31.93617265 160.10322631 C-36.29479566 164.46232704 -40.65262295 168.8222217 -45.00990677 173.18266106 C-57.39066957 185.57220641 -69.77350161 197.95967821 -82.15903287 210.34445668 C-82.82407643 211.00946029 -83.48912 211.6744639 -84.17431641 212.35961914 C-84.84017984 213.02544169 -85.50604327 213.69126425 -86.19208439 214.37726324 C-97.00837304 225.19314451 -107.81964984 236.01402029 -118.62869696 246.83713806 C-129.75375912 257.97656715 -140.88254886 269.1122602 -152.01522887 280.24407619 C-158.25511663 286.48363244 -164.49346551 292.72470934 -170.72779465 298.96982002 C-176.02791023 304.27904401 -181.33148252 309.58478475 -186.63954656 314.88606251 C-189.34487279 317.58812734 -192.04857971 320.29176054 -194.74792862 322.99979782 C-197.6773131 325.93851412 -200.61443035 328.86937999 -203.55233765 331.79957581 C-204.39883955 332.65122128 -205.24534146 333.50286675 -206.11749494 334.38031965 C-221.32644399 349.50123957 -234.73192113 352.37047003 -255.765625 354.2890625 C-256.92447205 354.39721283 -258.08331909 354.50536316 -259.27728271 354.61679077 C-261.70388111 354.84217415 -264.13066265 355.06559391 -266.55761719 355.28710938 C-270.25514416 355.62547074 -273.95178926 355.97249641 -277.6484375 356.3203125 C-280.02078543 356.53958145 -282.39317977 356.75834884 -284.765625 356.9765625 C-285.85957581 357.07965729 -286.95352661 357.18275208 -288.08062744 357.28897095 C-311.00416245 359.35617504 -311.00416245 359.35617504 -320.3125 351.9375 C-326.39299994 345.94333576 -329.22635069 340.49033331 -329.29702759 331.78730774 C-329.28924286 330.98866806 -329.28145813 330.19002838 -329.2734375 329.3671875 C-329.26863373 328.50631027 -329.26382996 327.64543304 -329.25888062 326.75846863 C-329.09604026 315.77025041 -328.03456757 304.84567028 -326.97363281 293.91430664 C-326.621898 290.28045255 -326.28653447 286.64534245 -325.953125 283.00976562 C-325.73272246 280.66918103 -325.51140182 278.32868266 -325.2890625 275.98828125 C-325.19001617 274.91628983 -325.09096985 273.8442984 -324.98892212 272.73982239 C-323.34079224 255.98876164 -318.16513574 246.54280126 -306.09603882 234.58137512 C-305.09211876 233.57211972 -304.0890687 232.56199832 -303.08680689 231.55109614 C-300.35045675 228.79622266 -297.60189808 226.05382931 -294.85102534 223.31346762 C-291.87844972 220.34791346 -288.91743677 217.37085078 -285.9548645 214.39530945 C-280.15690879 208.57575721 -274.34816769 202.76708848 -268.53533213 196.96240262 C-263.80871231 192.24209348 -259.08584085 187.51806451 -254.36558914 182.79138756 C-253.69267861 182.11757537 -253.01976809 181.44376319 -252.32646633 180.74953246 C-250.95927069 179.38048553 -249.59208069 178.01143297 -248.22489627 176.64237484 C-235.41539184 163.81630685 -222.59328729 151.00289408 -209.76707406 138.19353821 C-198.04605061 126.48720792 -186.33974882 114.76628428 -174.64050095 103.03819493 C-162.61293198 90.98119735 -150.57614196 78.93347994 -138.52908099 66.89595717 C-137.16514182 65.5330405 -135.80121658 64.17010988 -134.43730545 62.80716515 C-133.76632102 62.1366571 -133.09533658 61.46614906 -132.40401929 60.77532259 C-127.68894388 56.06240686 -122.97986444 51.34355146 -118.27317429 46.62226295 C-112.53159599 40.86312455 -106.78121592 35.11295137 -101.01950829 29.37394861 C-98.08312307 26.44867243 -95.15080048 23.51962122 -92.22931671 20.57945633 C-89.54914574 17.88236927 -86.85747868 15.19731428 -84.15660627 12.52096268 C-82.73185098 11.10333192 -81.31923209 9.67353495 -79.90724313 8.2431882 C-58.20974349 -13.14456028 -25.63793103 -16.97773076 0 0 Z M-71 47 C-69.450168 50.70044944 -67.19605329 53.04581087 -64.36669922 55.86035156 C-63.89823578 56.32910706 -63.42977234 56.79786255 -62.94711304 57.28082275 C-61.40433305 58.82221432 -59.85460036 60.35640873 -58.3046875 61.890625 C-57.23093808 62.96064255 -56.15763067 64.03110381 -55.08474731 65.10198975 C-52.26479548 67.91431879 -49.43888846 70.72058889 -46.61169434 73.52563477 C-43.7257863 76.39105523 -40.84555743 79.26217168 -37.96484375 82.1328125 C-32.31543511 87.76079512 -26.65972175 93.38238884 -21 99 C-15.52104688 96.40013086 -11.76943385 92.17795579 -7.5 87.9375 C-6.21802734 86.70483398 -6.21802734 86.70483398 -4.91015625 85.44726562 C0.98842583 79.59929541 5.04904342 74.31416914 6.53125 66.03125 C6.38202463 53.9439949 1.24180561 47.4377475 -7 39 C-7.99159452 37.94728206 -8.98245244 36.89386991 -9.97265625 35.83984375 C-17.0110647 28.45649189 -23.83919502 22.01278618 -34.625 21.6875 C-50.36041869 21.91621248 -60.82286338 36.6942198 -71 47 Z M-99.15446854 74.90013504 C-100.17172307 75.87092574 -100.17172307 75.87092574 -101.20952821 76.86132836 C-102.33814542 77.9462254 -102.33814542 77.9462254 -103.48956299 79.05303955 C-104.28318229 79.81264284 -105.0768016 80.57224613 -105.89446998 81.3548677 C-108.57741241 83.92529558 -111.25620918 86.49999453 -113.93457031 89.07519531 C-115.33806952 90.42250134 -115.33806952 90.42250134 -116.76992226 91.79702568 C-134.73747984 109.04576991 -152.5724065 126.42983439 -170.35393347 143.87014557 C-173.27303567 146.73313875 -176.19310111 149.59514763 -179.11376953 152.45654297 C-179.98570877 153.31083758 -179.98570877 153.31083758 -180.87526295 154.18239066 C-190.22468342 163.3377132 -199.65520324 172.40473205 -209.12042609 181.44010916 C-218.87218876 190.75270185 -228.52933944 200.15620903 -238.1088016 209.64597201 C-243.47684365 214.95874852 -248.87717846 220.22471148 -254.38871002 225.38883209 C-277.65034409 247.22519063 -294.92406664 265.51731255 -296.34019518 299.13329744 C-296.48650854 305.01728848 -296.41528615 310.86866225 -296.10026908 316.74581695 C-295.99259106 319.16656282 -295.98459937 321.57718145 -296 324 C-293.52470391 323.8051317 -291.04944404 323.60982705 -288.57421875 323.4140625 C-287.80360107 323.35312408 -287.0329834 323.29218567 -286.23901367 323.22940063 C-279.47301241 322.69206759 -272.70925985 322.12919624 -265.94572449 321.56176758 C-261.49696974 321.19243051 -257.05027753 320.86555359 -252.59375 320.6015625 C-250.95832011 320.48455963 -249.32290173 320.3673957 -247.6875 320.25 C-246.99293701 320.22502441 -246.29837402 320.20004883 -245.58276367 320.17431641 C-236.64451109 319.44544121 -229.88259699 310.0274551 -223.90075684 304.02101135 C-223.12621359 303.24732253 -222.35167035 302.47363372 -221.5536561 301.67649978 C-218.97805441 299.10253551 -216.40602568 296.52503139 -213.83398438 293.94750977 C-211.98082606 292.09406917 -210.12744711 290.24084915 -208.27386475 288.38783264 C-204.29338257 284.40787297 -200.31472484 280.42609709 -196.33732605 276.44305611 C-190.58678299 270.68436088 -184.83345675 264.92845279 -179.0794633 259.17320537 C-169.74242257 249.83397994 -160.40761381 240.49252692 -151.07421875 231.1496582 C-142.01159341 222.07784366 -132.94791079 213.00708759 -123.8828125 203.93774414 C-123.32335912 203.37802804 -122.76390574 202.81831193 -122.18749923 202.24163473 C-119.38067614 199.43350655 -116.57383235 196.62539906 -113.76697826 193.81730187 C-90.50810721 170.54807635 -67.25286283 147.27522954 -44 124 C-44.94864759 122.8857206 -45.89837547 121.77236086 -46.84855175 120.65938473 C-47.37731417 120.03928302 -47.90607659 119.41918131 -48.45086211 118.78028864 C-50.47717105 116.45162906 -52.61480164 114.25802003 -54.79614258 112.07446289 C-55.69339554 111.17405777 -56.5906485 110.27365265 -57.51509094 109.34596252 C-58.47477646 108.38806559 -59.4345929 107.43029981 -60.39453125 106.47265625 C-61.39261718 105.47389555 -62.39055473 104.47498654 -63.38835144 103.47593689 C-65.46520896 101.39761463 -67.54384072 99.32108828 -69.6237793 97.24584961 C-72.29497003 94.58040028 -74.96158593 91.91042593 -77.62692738 89.23912907 C-79.67965301 87.18280261 -81.73473846 85.12884796 -83.79056358 83.07562065 C-84.77573816 82.09111438 -85.76016708 81.10586138 -86.74384499 80.1198597 C-88.11042808 78.75075319 -89.48053685 77.38516854 -90.85083008 76.01977539 C-91.6299324 75.24146866 -92.40903473 74.46316193 -93.21174622 73.66127014 C-96.13007257 70.95017372 -96.52830972 72.38582669 -99.15446854 74.90013504 Z " fill="#000000" transform="translate(404,44)"/>
<path d="M0 0 C1.10669232 -0.00307895 1.10669232 -0.00307895 2.23574206 -0.0062201 C4.72753712 -0.01191007 7.21927725 -0.0104304 9.71107769 -0.00901413 C11.50780431 -0.01159662 13.30453035 -0.01460945 15.1012556 -0.01801753 C20.05398292 -0.02610438 25.00669576 -0.02787804 29.95942891 -0.028615 C35.29492307 -0.03046262 40.63040966 -0.03800844 45.96589947 -0.04475021 C57.63930509 -0.05834574 69.31270729 -0.06436007 80.98611951 -0.06876087 C88.27101321 -0.07152108 95.55590558 -0.07575801 102.84079838 -0.08026505 C122.99919362 -0.09245901 143.15758779 -0.10275826 163.31598663 -0.10614014 C165.25213229 -0.10646949 165.25213229 -0.10646949 167.227392 -0.10680549 C169.1682424 -0.10713291 169.1682424 -0.10713291 171.1483019 -0.10746694 C173.77035733 -0.10791041 176.39241276 -0.10835697 179.01446819 -0.10880661 C180.31510587 -0.10902804 181.61574354 -0.10924947 182.95579448 -0.10947761 C204.03890909 -0.11342707 225.12198917 -0.13088504 246.20509044 -0.15416613 C267.83591314 -0.17785983 289.46671849 -0.19034107 311.09755439 -0.19150805 C323.24850067 -0.1924259 335.39940196 -0.19820576 347.55033588 -0.21632767 C357.89557484 -0.23170189 368.2407549 -0.23686496 378.5860031 -0.22858956 C383.86668149 -0.22467363 389.14724118 -0.22565857 394.42790508 -0.23964691 C399.25962325 -0.25232927 404.09113281 -0.2512384 408.92285045 -0.2390562 C410.6731944 -0.23708934 412.42355284 -0.24022294 414.17387638 -0.24890056 C416.54929332 -0.25993402 418.92396637 -0.25254718 421.29936218 -0.24050903 C421.98223717 -0.24810423 422.66511216 -0.25569942 423.36868033 -0.26352477 C427.9044277 -0.21374841 430.97517788 0.77941279 434.8384428 3.13142776 C438.72293078 7.23172063 440.57914888 10.84099811 441.2134428 16.44392776 C440.74679518 21.03262937 439.51058853 24.372446 436.8384428 28.13142776 C431.41954119 32.44443109 427.52119594 33.25637506 420.71370697 33.26564884 C419.97988803 33.26800107 419.24606909 33.2703533 418.49001321 33.27277681 C416.01172543 33.27947543 413.53348998 33.27900833 411.0551939 33.27859879 C409.2681421 33.28189687 407.48109105 33.28562232 405.69404095 33.28974026 C400.76797976 33.29977463 395.84193074 33.30347936 390.91586077 33.30612957 C385.60895717 33.31002836 380.30206325 33.31960697 374.99516582 33.32834244 C362.17164814 33.34811861 349.34812966 33.35817439 336.52460054 33.36707023 C330.48917593 33.37145112 324.4537522 33.37681843 318.41832829 33.3820591 C298.36116277 33.3990723 278.3039978 33.41356727 258.24682617 33.42080784 C253.04014173 33.4227178 247.8334573 33.42463813 242.62677288 33.42659378 C241.33264106 33.42707752 240.03850923 33.42756126 238.7051613 33.42805966 C217.73331743 33.43636289 196.76153055 33.46170436 175.78971157 33.49417446 C154.26962066 33.52722242 132.74955873 33.54525454 111.2294423 33.54845208 C99.1421316 33.55061924 87.054904 33.55939807 74.96761799 33.58491325 C64.67512592 33.60658931 54.38273714 33.61468591 44.09022484 33.60494647 C38.83761601 33.60039285 33.58522042 33.60234974 28.33264065 33.62170792 C23.52420414 33.63927639 18.71613744 33.63839328 13.90769734 33.62281062 C12.1680824 33.62042494 10.42844228 33.62480768 8.68886594 33.63663927 C-7.62658179 33.74073487 -7.62658179 33.74073487 -14.1615572 29.13142776 C-18.33070376 23.89326926 -19.70883144 19.80817354 -19.1615572 13.13142776 C-17.35163108 7.85903429 -14.92703338 4.18622019 -10.1615572 1.13142776 C-6.69471517 -0.02418624 -3.6049291 -0.00924602 0 0 Z " fill="#000000" transform="translate(45.1615571975708,452.8685722351074)"/>
</svg>
