<?xml version="1.0" encoding="UTF-8"?>
<svg version="1.1" xmlns="http://www.w3.org/2000/svg" width="512" height="512">
<path d="M0 0 C1.81803911 -0.00735287 3.63607358 -0.01594261 5.45410156 -0.02566528 C10.35890653 -0.04775406 15.26354289 -0.0508186 20.16839075 -0.04891777 C24.27382754 -0.04879756 28.37922926 -0.0573816 32.48465621 -0.06569529 C42.17176108 -0.08488125 51.85877978 -0.08782964 61.54589844 -0.08105469 C71.52083163 -0.0744068 81.49539572 -0.09731946 91.47025406 -0.13436842 C100.05659009 -0.16509621 108.6428075 -0.17642242 117.22919738 -0.1725316 C122.3479813 -0.17046851 127.46647736 -0.17587661 132.58520889 -0.20042419 C137.39698605 -0.22274172 142.20816294 -0.22077196 147.01994324 -0.20049667 C148.77989548 -0.19709627 150.53988857 -0.20213372 152.29978561 -0.21648026 C170.22162574 -0.35243993 170.22162574 -0.35243993 177.72216797 5.41992188 C183.40392718 11.46130654 184.08947176 17.12347509 183.99169922 25.12304688 C183.53241042 30.74101423 181.93965364 34.38536762 177.78076172 38.20117188 C172.34042743 42.44924138 168.62406623 43.54424939 161.66439819 43.55795288 C160.57976994 43.5621848 160.57976994 43.5621848 159.47323 43.56650221 C157.04366599 43.57485317 154.61414752 43.57618691 152.18457031 43.57763672 C150.44505688 43.5823047 148.70554467 43.58744823 146.96603394 43.59303284 C143.21575408 43.60431879 139.4654822 43.61275069 135.71519089 43.61915207 C129.78117665 43.62983043 123.84721947 43.65007599 117.91323853 43.67227173 C101.03756328 43.73419781 84.16189098 43.78817354 67.28613281 43.82128906 C57.96897329 43.8396526 48.65190896 43.86861215 39.33481944 43.90929377 C34.40549442 43.93033812 29.47628926 43.94581737 24.54691696 43.94810104 C19.90607416 43.95025349 15.26548069 43.96618365 10.6247139 43.99249077 C8.92564521 43.99966306 7.22654624 44.00179481 5.52746582 43.99838829 C-5.52960393 43.97976845 -14.87607196 44.14891544 -23.77001953 51.43164062 C-28.92015002 58.22287488 -28.70583896 65.7647643 -28.65878296 73.90710449 C-28.66346293 75.15377883 -28.6681429 76.40045318 -28.67296469 77.68490553 C-28.68283303 81.12904042 -28.67931862 84.57268183 -28.67000604 88.01678634 C-28.66320324 91.73736852 -28.67370286 95.45790836 -28.6819458 99.17848206 C-28.69527222 106.46063573 -28.69241027 113.74269654 -28.68370788 121.02485383 C-28.67692744 126.94422487 -28.67601617 132.86356992 -28.67927933 138.78294373 C-28.67973903 139.6260352 -28.68019873 140.46912668 -28.68067235 141.33776638 C-28.68163155 143.05059326 -28.68260419 144.76342014 -28.68359013 146.47624701 C-28.69214083 162.53019391 -28.68231492 178.58408938 -28.66618903 194.63802785 C-28.65278614 208.40731124 -28.65511432 222.17651876 -28.66894531 235.94580078 C-28.68500678 251.94305498 -28.69131688 267.94026413 -28.68210852 283.93752527 C-28.68115289 285.64398352 -28.68020978 287.35044177 -28.67927933 289.05690002 C-28.6788165 289.89646806 -28.67835367 290.73603609 -28.67787682 291.60104558 C-28.67528864 297.51199042 -28.67965424 303.42290664 -28.68671799 309.33384705 C-28.69513948 316.53920202 -28.69283921 323.74445898 -28.67687576 330.94980276 C-28.66900175 334.62473785 -28.66588649 338.29950962 -28.67582321 341.97444344 C-28.68643839 345.96063402 -28.67374694 349.94655827 -28.65878296 353.93273926 C-28.66547512 355.0907188 -28.67216729 356.24869834 -28.67906225 357.44176817 C-28.62320268 365.10628374 -28.02174836 371.17054727 -22.90283203 377.23242188 C-17.38966061 381.82673139 -13.16008489 383.541716 -6.04468918 383.55134964 C-4.4464898 383.55711136 -4.4464898 383.55711136 -2.81600356 383.56298947 C-1.64637265 383.56212299 -0.47674175 383.56125651 0.72833252 383.56036377 C1.97158916 383.56333489 3.21484581 383.56630601 4.49577689 383.56936717 C7.94878986 383.57654856 11.40175308 383.57922657 14.85476995 383.57996464 C18.57813782 383.58181571 22.30149492 383.58936332 26.02485657 383.59609985 C34.16745766 383.60968155 42.31005384 383.61570763 50.45266438 383.62011051 C55.53700426 383.6228732 60.62134225 383.6271106 65.70568085 383.63161469 C79.78291327 383.64380711 93.86014416 383.65410649 107.93738174 383.65748978 C108.8383502 383.65770934 109.73931865 383.65792891 110.66758917 383.65815513 C111.57071223 383.65837341 112.4738353 383.65859168 113.40432572 383.65881658 C115.23439423 383.65926004 117.06446274 383.65970661 118.89453125 383.66015625 C119.80230827 383.66037768 120.71008528 383.66059911 121.64537069 383.66082725 C136.35431571 383.66477519 151.06321119 383.68222921 165.77213708 383.70551577 C180.87379004 383.72923109 195.97541814 383.74169171 211.07709002 383.74285769 C219.55603149 383.74377435 228.03490841 383.74952429 236.51383209 383.76767731 C243.73391048 383.78308072 250.95390436 383.78819734 258.17399606 383.7799392 C261.85701326 383.77603355 265.53986029 383.77695804 269.22285652 383.79099655 C273.21805009 383.80608565 277.21286054 383.79786652 281.20806885 383.78741455 C282.36877687 383.79547096 283.52948489 383.80352736 284.72536588 383.8118279 C291.95318103 383.76755771 298.04187321 383.25387707 303.96435547 378.69335938 C304.50318359 378.066875 305.04201172 377.44039063 305.59716797 376.79492188 C306.15146484 376.18390625 306.70576172 375.57289063 307.27685547 374.94335938 C312.16714211 366.40518324 310.99594132 355.69947938 310.96166992 346.18530273 C310.96278415 344.44328225 310.96484406 342.70126215 310.96777344 340.95924377 C310.97247896 337.22214089 310.9713931 333.48510093 310.9659977 329.74799919 C310.95836339 323.83476641 310.96907021 317.92165384 310.98320007 312.00843811 C311.02087246 295.19857282 311.03912002 278.38876308 311.02758789 261.57885742 C311.0213686 252.2839782 311.03296294 242.98929407 311.06403321 233.69446284 C311.08266483 227.81989215 311.0793916 221.94587511 311.05986559 216.07131374 C311.05297369 212.41395726 311.06696021 208.75689974 311.08681488 205.09959984 C311.09185253 203.40815824 311.08840212 201.71666601 311.07568169 200.02526474 C310.95983045 183.43792152 310.95983045 183.43792152 316.72216797 177.41992188 C322.99209167 171.60877308 327.81040214 170.9530406 336.23779297 171.11914062 C340.88190847 171.520034 344.1873633 172.31979157 347.72216797 175.41992188 C352.84598272 181.65858863 354.8725369 186.67139921 354.86260986 194.71652222 C354.86706655 195.83979438 354.86706655 195.83979438 354.87161326 196.9857589 C354.88030569 199.5027242 354.88180901 202.01964196 354.88330078 204.53662109 C354.88792884 206.33860882 354.89295348 208.14059557 354.89834595 209.94258118 C354.91147946 214.84601221 354.91791761 219.74942954 354.92235661 224.65287542 C354.92528786 227.71926018 354.92939293 230.7856412 354.93386078 233.85202408 C354.94754274 243.45381111 354.95720405 253.0555896 354.96106267 262.65738571 C354.96553506 273.72513872 354.98304189 284.79276773 355.01206326 295.86048305 C355.03373169 304.42288649 355.04376982 312.98525519 355.04510379 321.54768574 C355.0461488 326.65713271 355.05199079 331.76646321 355.0699234 336.8758812 C355.08649177 341.69069396 355.08851732 346.50530387 355.07978439 351.32013512 C355.07901849 353.07882038 355.08329712 354.83751693 355.09324265 356.59617424 C355.20048744 376.75784179 351.14633643 394.36518867 336.72216797 409.41992188 C327.5297711 418.22729688 313.8625734 426.65880092 300.84525776 426.67719078 C299.68709122 426.68363967 298.52892468 426.69008857 297.33566219 426.69673288 C296.07273867 426.69363567 294.80981515 426.69053847 293.50862122 426.68734741 C292.14597102 426.69108566 290.78332298 426.69568788 289.42067832 426.70107806 C285.68152557 426.71330224 281.94246233 426.71304828 278.20329416 426.71068931 C274.1683727 426.71028099 270.13347988 426.72132183 266.09857178 426.73080444 C258.19485965 426.74741286 250.29117736 426.75291394 242.38744924 426.7540292 C235.96128984 426.75497987 229.53514028 426.75909111 223.10898399 426.76543045 C204.88342828 426.7830434 186.65789612 426.79226938 168.43233184 426.7907695 C166.9587121 426.79064963 166.9587121 426.79064963 165.45532227 426.79052734 C164.4717072 426.79044558 163.48809213 426.79036382 162.47467055 426.79027958 C146.5392216 426.78946695 130.60386723 426.80859882 114.66844562 426.83680408 C98.29996619 426.8655468 81.93153286 426.87934357 65.56302756 426.87761652 C56.37586358 426.87695304 47.18879871 426.88242686 38.00165749 426.90397263 C30.17819535 426.92220282 22.35487725 426.92651678 14.53140304 426.91295378 C10.54214784 426.90643302 6.55316881 426.90627432 2.56394005 426.92366028 C-1.09361726 426.93943627 -4.75068046 426.93648184 -8.40822605 426.91909201 C-10.34636865 426.91459095 -12.28452684 426.92964402 -14.22260922 426.9455713 C-21.9993714 426.88449962 -28.17262634 425.57893696 -35.27783203 422.41992188 C-36.28716797 421.98550781 -37.29650391 421.55109375 -38.33642578 421.10351562 C-53.97732104 412.91066573 -64.15324867 399.86683673 -70.27783203 383.41992188 C-72.48733005 376.34599189 -72.56398622 369.70521319 -72.54525757 362.32772827 C-72.54978868 361.01586693 -72.55431979 359.7040056 -72.55898821 358.35239089 C-72.57117982 354.72616197 -72.57096229 351.10002558 -72.56859946 347.47378087 C-72.56819031 343.55676568 -72.5792399 339.63977977 -72.5887146 335.72277832 C-72.60530525 328.05362071 -72.6108233 320.38449385 -72.61193936 312.7153198 C-72.61289089 306.47802111 -72.61700646 300.24073253 -72.62334061 294.00343704 C-72.64094891 276.30293223 -72.6501803 258.60245164 -72.64867966 240.90193801 C-72.64859975 239.94832678 -72.64851983 238.99471556 -72.6484375 238.01220703 C-72.64835574 237.05742543 -72.64827398 236.10264383 -72.64818974 235.11892946 C-72.64737729 219.65445627 -72.6665056 204.19008058 -72.69471423 188.72563557 C-72.72347854 172.83055334 -72.73725253 156.93551859 -72.73552668 141.04040968 C-72.73486393 132.1231338 -72.7403055 123.2059601 -72.76188278 114.28870773 C-72.78014146 106.69448077 -72.7844037 99.10040228 -72.77086394 91.50616281 C-72.7643574 87.63600961 -72.76413248 83.76614087 -72.78157043 79.89601517 C-72.79741016 76.34385038 -72.79432819 72.79219301 -72.77700217 69.24003978 C-72.77252759 67.36584654 -72.7875038 65.49163686 -72.80348146 63.61750638 C-72.66362886 46.21354662 -66.07383852 31.10379981 -54.27783203 18.41992188 C-38.73983219 3.47745512 -20.73470449 -0.0399129 0 0 Z " fill="#000000" transform="translate(72.27783203125,85.580078125)"/>
<path d="M0 0 C2.89681451 1.39403104 4.97743506 2.72908139 7.25238037 5.01187134 C8.18197823 5.9373452 8.18197823 5.9373452 9.13035583 6.8815155 C9.79857864 7.55692886 10.46680145 8.23234222 11.15527344 8.92822266 C11.86786819 9.64052536 12.58046295 10.35282806 13.31465149 11.0867157 C15.66766451 13.4411215 18.0135151 15.80253125 20.359375 18.1640625 C21.98989975 19.79831755 23.62086676 21.43213146 25.2522583 23.06552124 C29.54416676 27.36506473 33.83003514 31.67058065 38.11468506 35.97735596 C42.48819822 40.37133023 46.86738079 44.75964603 51.24609375 49.1484375 C59.83629625 57.76008764 68.4201302 66.37805611 77 75 C75.70867772 77.83547293 74.35136635 79.90107914 72.1581192 82.10752964 C71.28358085 82.99451647 71.28358085 82.99451647 70.39137506 83.89942223 C69.75034263 84.53940382 69.1093102 85.17938541 68.44885254 85.83876038 C67.42781756 86.86976707 67.42781756 86.86976707 66.38615561 87.92160219 C64.09881289 90.22866502 61.80433637 92.52849669 59.50976562 94.82836914 C57.87016337 96.4788645 56.23095155 98.1297478 54.59210205 99.7809906 C50.13411438 104.26951094 45.66937198 108.75125078 41.20244026 113.23086858 C38.41184742 116.02954262 35.62230793 118.82926257 32.83305359 121.62927055 C25.10589611 129.38540475 17.37676201 137.1395557 9.64041901 144.88652897 C9.14544618 145.38219249 8.65047335 145.87785601 8.14050135 146.38853964 C7.64436088 146.88537212 7.14822041 147.38220461 6.63704538 147.89409262 C5.63172376 148.90082622 4.62640656 149.90756424 3.62109375 150.91430664 C3.12242458 151.41368098 2.6237554 151.91305533 2.10997504 152.42756223 C-5.96576749 160.5155493 -14.02612302 168.61868857 -22.0800516 176.72839219 C-30.35453035 185.05970517 -38.64215332 193.37775534 -46.94291925 201.68287939 C-51.60083919 206.34419844 -56.25284404 211.01107916 -60.89091492 215.69215584 C-65.25536045 220.09635745 -69.63618586 224.48357909 -74.03006744 228.85840797 C-75.63812047 230.46519503 -77.24022069 232.07796558 -78.83579254 233.69714737 C-81.01897306 235.91077084 -83.22279869 238.10160842 -85.4329834 240.28822327 C-86.05617006 240.93043558 -86.67935672 241.57264789 -87.32142782 242.23432118 C-92.05473537 246.84871956 -96.5954295 248.58368192 -103 250 C-104.27078903 250.29666565 -105.54157806 250.5933313 -106.85087585 250.89898682 C-108.06886368 251.14404968 -109.2868515 251.38911255 -110.54174805 251.64160156 C-111.22446777 251.78019592 -111.9071875 251.91879028 -112.6105957 252.06158447 C-114.82662844 252.50979786 -117.04401405 252.95076441 -119.26171875 253.390625 C-120.8225132 253.70252283 -122.38328862 254.01451592 -123.94404602 254.32659912 C-127.19677736 254.97555499 -130.45030543 255.62033702 -133.7043457 256.26269531 C-137.86236935 257.08430038 -142.0171947 257.92102945 -146.17145061 258.76144791 C-149.3861958 259.4092277 -152.60293939 260.04660752 -155.82032204 260.68114471 C-157.35318155 260.98520262 -158.88530567 261.29299384 -160.4166317 261.60468292 C-162.55790076 262.03939241 -164.70158005 262.45937656 -166.84643555 262.87597656 C-168.06203659 263.11785706 -169.27763763 263.35973755 -170.53007507 263.60894775 C-175.71402576 264.19316661 -179.58813546 264.01285934 -183.875 260.9375 C-187.22694423 256.30393004 -187.19734146 251.7336654 -186.57098389 246.23104858 C-186.32136231 244.91897849 -186.0584592 243.60938404 -185.78417969 242.30224609 C-185.64284103 241.57919785 -185.50150238 240.8561496 -185.35588074 240.1111908 C-184.890142 237.7459766 -184.40655223 235.38483731 -183.921875 233.0234375 C-183.59048596 231.36789516 -183.25995384 229.71218108 -182.93023682 228.05630493 C-182.2385513 224.59676543 -181.53829988 221.13910842 -180.83154297 217.68261719 C-179.92827406 213.26280053 -179.04385227 208.83947124 -178.16547775 204.41464806 C-177.48572784 200.99888271 -176.79737409 197.58489644 -176.10630035 194.17140579 C-175.77707065 192.54126307 -175.45017162 190.91064778 -175.12569427 189.27955246 C-174.67009853 186.9975297 -174.20328292 184.71808244 -173.73339844 182.43896484 C-173.53682899 181.43821678 -173.53682899 181.43821678 -173.33628845 180.41725159 C-171.63481593 172.31219351 -167.95829839 167.52029595 -162.2233429 161.86257935 C-161.53065927 161.16733245 -160.83797565 160.47208555 -160.12430161 159.75577056 C-157.80518565 157.4317196 -155.47552222 155.11854241 -153.14575195 152.80517578 C-151.47966161 151.13993177 -149.81423181 149.47402666 -148.14941406 147.80751038 C-143.62956961 143.28680478 -139.10053155 138.77541208 -134.56980157 134.26561975 C-130.31551702 130.02818254 -126.06814492 125.78383274 -121.82073428 121.53950809 C-113.40937972 113.13471446 -104.99135175 104.73663795 -96.5690918 96.34277344 C-88.38913961 88.19037108 -80.21235375 80.03481428 -72.03979492 71.875 C-71.53578084 71.37177409 -71.03176676 70.86854818 -70.51247952 70.35007299 C-67.98393177 67.82544044 -65.45544603 65.3007458 -62.92699111 62.77602029 C-41.96093233 41.84104628 -20.98391394 20.91707744 0 0 Z " fill="#000000" transform="translate(368,68)"/>
<path d="M0 0 C11.41872561 7.82240709 19.80855881 18.41997283 23.52734375 31.89453125 C26.22470976 47.64778717 24.8097184 62.59589165 15.99926758 76.19067383 C9.27968026 85.68284926 0.3589135 93.70367038 -7.875 101.875 C-9.03864753 103.03361712 -10.20206046 104.1924699 -11.36523438 105.3515625 C-14.17830065 108.15375764 -16.99449374 110.95277314 -19.8125 113.75 C-22.73507439 112.42958555 -24.80508209 111.00571935 -27.06488037 108.73812866 C-27.68461227 108.12114609 -28.30434418 107.50416351 -28.94285583 106.8684845 C-29.61107864 106.19307114 -30.27930145 105.51765778 -30.96777344 104.82177734 C-31.68036819 104.10947464 -32.39296295 103.39717194 -33.12715149 102.6632843 C-35.48016451 100.3088785 -37.8260151 97.94746875 -40.171875 95.5859375 C-41.80239975 93.95168245 -43.43336676 92.31786854 -45.0647583 90.68447876 C-49.35666676 86.38493527 -53.64253514 82.07941935 -57.92718506 77.77264404 C-62.30069822 73.37866977 -66.67988079 68.99035397 -71.05859375 64.6015625 C-79.64879625 55.98991236 -88.2326302 47.37194389 -96.8125 38.75 C-95.46294428 35.95556026 -94.18821563 33.86877323 -92.00610352 31.65307617 C-91.44113663 31.07534958 -90.87616974 30.49762299 -90.29408264 29.90238953 C-89.68269943 29.28878067 -89.07131622 28.67517181 -88.44140625 28.04296875 C-87.48596169 27.07753899 -87.48596169 27.07753899 -86.51121521 26.09260559 C-85.159623 24.7308945 -83.80530811 23.37188123 -82.44848633 22.01538086 C-80.40307302 19.96563252 -78.37416049 17.90049539 -76.34570312 15.83398438 C-55.4879183 -5.20614526 -27.82364872 -16.58790517 0 0 Z " fill="#000000" transform="translate(487.8125,8.25)"/>
</svg>
