<?xml version="1.0" encoding="UTF-8"?>
<svg version="1.1" xmlns="http://www.w3.org/2000/svg" width="512" height="512">
<path d="M0 0 C1.51883789 0.29801514 1.51883789 0.29801514 3.06835938 0.60205078 C50.95723881 10.17839201 95.42348903 32.47256667 130.49975586 66.59692383 C132.56359956 68.52709628 134.79256034 70.23782168 137 72 C138.09809154 73.15466769 139.1624861 74.34249631 140.1875 75.5625 C142.1512211 77.87251171 144.12644722 80.13313755 146.21484375 82.33203125 C181.55068829 119.61506982 202.51918418 170.50640493 209 221 C209.08732895 221.66720566 209.1746579 222.33441132 209.26463318 223.02183533 C209.96087491 228.73820476 210.17456164 234.37742632 210.203125 240.1328125 C210.21018463 241.07916061 210.21724426 242.02550873 210.22451782 243.00053406 C210.45241099 282.51652112 210.45241099 282.51652112 207 299 C206.70198486 300.46228027 206.70198486 300.46228027 206.39794922 301.95410156 C196.51441104 349.20259644 175.60986842 389.82003012 144 426 C143.2059375 426.9178125 142.411875 427.835625 141.59375 428.78125 C137.65342434 433.2613463 133.63182136 437.40044876 129.06640625 441.2421875 C126.81253016 443.1594734 124.66507153 445.17062201 122.5 447.1875 C89.24247051 477.05347016 47.13017529 496.39458716 3.5625 505.3125 C2.84360596 505.45985596 2.12471191 505.60721191 1.3840332 505.7590332 C-13.29160498 508.54840125 -27.81668838 509.34892619 -42.72729492 509.31567383 C-45.66688487 509.3125221 -48.6054558 509.33604926 -51.54492188 509.36132812 C-64.91806192 509.40598737 -77.81416711 508.20051542 -91 506 C-92.70555054 505.71781616 -92.70555054 505.71781616 -94.44555664 505.42993164 C-97.0412622 504.96367402 -99.61274939 504.4449418 -102.1875 503.875 C-103.57642456 503.56804199 -103.57642456 503.56804199 -104.9934082 503.25488281 C-138.16852023 495.54089209 -169.5454776 481.10858262 -197 461 C-197.57298828 460.58395508 -198.14597656 460.16791016 -198.73632812 459.73925781 C-206.29793619 454.2148153 -213.23654952 448.19792517 -220.02734375 441.76171875 C-222.01731577 439.88131657 -224.05585344 438.10349377 -226.17578125 436.37109375 C-228.45888878 434.45429393 -230.34823289 432.64711124 -232.25 430.375 C-234.19125892 428.08617944 -236.14372424 425.84865787 -238.2109375 423.671875 C-250.83695998 410.35121697 -260.89764839 394.88055353 -270 379 C-270.64364502 377.87754883 -270.64364502 377.87754883 -271.30029297 376.73242188 C-283.99673715 354.29130054 -292.37727501 329.97369762 -297.75 304.8125 C-297.94883789 303.88767822 -298.14767578 302.96285645 -298.35253906 302.01000977 C-301.64441382 285.8033142 -302.37530274 269.86962039 -302.3125 253.375 C-302.31034485 252.35676147 -302.3081897 251.33852295 -302.30596924 250.28942871 C-302.25627396 235.66752576 -301.95061242 221.36866068 -299 207 C-298.80132324 205.98744141 -298.60264648 204.97488281 -298.39794922 203.93164062 C-288.98216498 156.84566641 -267.39840662 113.96935007 -234.61328125 78.859375 C-232.80590247 76.88179463 -231.08608028 74.9133346 -229.39453125 72.84375 C-227.46827842 70.55612837 -225.65418745 68.65768994 -223.375 66.75 C-220.13925696 64.00232993 -217.03189284 61.15587856 -213.9375 58.25 C-180.49974776 27.81425591 -136.07440676 8.23304644 -92 0 C-91.19498047 -0.16226074 -90.38996094 -0.32452148 -89.56054688 -0.49169922 C-61.49825586 -5.97845467 -27.99265408 -5.74830701 0 0 Z M-200.44140625 102.3125 C-238.81565514 139.68568153 -260.7120418 194.69244338 -261.47290039 247.76977539 C-261.98197214 310.93383178 -238.23087303 364.7852643 -194.5 409.6875 C-154.56869389 448.98273221 -97.89450796 469.08290675 -42.5078125 468.99609375 C17.49612693 468.32512318 71.34875789 441.47552031 112.859375 399.29296875 C153.43469234 355.82999196 170.92346705 298.68780476 169.30924988 240.09260559 C167.31819576 183.1120452 139.13008131 130.45380889 98 92 C25.25750337 27.52369617 -84.28360407 19.08613833 -200.44140625 102.3125 Z " fill="#000000" transform="translate(302,3)"/>
<path d="M0 0 C4.07733699 3.00343453 7.21919777 6.52868707 8.82421875 11.34375 C8.92763949 13.2387089 8.97222136 15.13708357 8.98484802 17.03482056 C8.99489365 18.22074799 9.00493927 19.40667542 9.01528931 20.62854004 C9.0211203 21.93141968 9.02695129 23.23429932 9.03295898 24.57666016 C9.04249909 25.96149939 9.05239032 27.34633624 9.06260681 28.73117065 C9.09398051 33.28168921 9.1142606 37.83222595 9.1328125 42.3828125 C9.13775848 43.5451457 9.13775848 43.5451457 9.14280438 44.73096037 C9.17359001 52.04306929 9.2002901 59.35518241 9.21722317 66.66733742 C9.23911326 76.00967754 9.28104921 85.35144174 9.35066074 94.69355166 C9.39797771 101.26779276 9.42216711 107.84187892 9.42942005 114.41628492 C9.43436568 118.33981975 9.44934059 122.26270534 9.48916435 126.18605423 C9.52618029 129.88154317 9.53439257 133.57601616 9.52115822 137.27165604 C9.5212374 139.2631363 9.55099281 141.25454735 9.58184814 143.24578857 C9.51808047 151.15887697 8.32910406 156.46687402 2.82421875 162.34375 C-1.77326193 166.28720085 -7.22769425 167.59283237 -13.17578125 167.34375 C-19.34243372 166.19196202 -23.81231104 163.81111236 -28.17578125 159.34375 C-30.63581067 155.16164421 -31.55144238 152.10673954 -31.55673218 147.27172852 C-31.56519165 146.07734161 -31.57365112 144.88295471 -31.58236694 143.65237427 C-31.57629425 142.35556732 -31.57022156 141.05876038 -31.56396484 139.72265625 C-31.56803337 138.33250517 -31.57337684 136.94235733 -31.57989502 135.55221558 C-31.59354109 131.7877442 -31.58828129 128.0235202 -31.57875776 124.25904465 C-31.57114707 120.31404722 -31.57821069 116.36907055 -31.58291626 112.42407227 C-31.58836971 105.79992888 -31.581193 99.17588594 -31.56689453 92.55175781 C-31.55056876 84.90020861 -31.55585756 77.24889924 -31.57237375 69.59735584 C-31.58600034 63.02052925 -31.58790256 56.44377474 -31.58005774 49.86693859 C-31.57538766 45.94210569 -31.57473802 42.01738542 -31.58466721 38.09255981 C-31.59335172 34.40213961 -31.58728815 30.71202777 -31.56998444 27.02164078 C-31.56414424 25.02614004 -31.57302247 23.03061314 -31.58236694 21.03512573 C-31.57390747 19.84073883 -31.565448 18.64635193 -31.55673218 17.41577148 C-31.5556011 16.38193832 -31.55447002 15.34810516 -31.55330467 14.28294373 C-30.7544508 8.06349839 -27.6428465 4.35085795 -22.921875 0.6015625 C-16.06896252 -4.33498743 -7.24212779 -4.11317602 0 0 Z " fill="#000000" transform="translate(267.17578125,216.65625)"/>
<path d="M0 0 C5.44509256 4.82476556 8.65309442 10.2054526 9.31640625 17.4609375 C9.62343639 27.38494409 8.54531038 34.37509319 1.8125 41.8125 C-5.22683445 48.19839412 -12.13055311 49.762524 -21.56640625 49.4375 C-30.338561 48.3197738 -35.72263855 43.88943658 -41.40625 37.37890625 C-46.12585549 30.33420099 -45.81199432 22.16223453 -45 14 C-42.96472679 7.04917855 -39.06981102 1.91684387 -33 -2 C-22.06986585 -7.93216682 -10.2087206 -6.94909402 0 0 Z " fill="#000000" transform="translate(274,141)"/>
</svg>
