<?xml version="1.0" encoding="UTF-8"?>
<svg version="1.1" xmlns="http://www.w3.org/2000/svg" width="512" height="512">
<path d="M0 0 C3.38371158 1.40725944 4.95206252 2.91971453 6.99609375 5.9375 C7.82379272 7.14224976 7.82379272 7.14224976 8.66821289 8.37133789 C9.25207764 9.23879639 9.83594238 10.10625488 10.4375 11 C11.69403575 12.83290717 12.95187541 14.66492106 14.2109375 16.49609375 C14.84483398 17.42147949 15.47873047 18.34686523 16.13183594 19.30029297 C18.87770222 23.26837836 21.71664474 27.16583392 24.5625 31.0625 C29.72514998 38.15273969 34.71120357 45.35118389 39.59985352 52.63305664 C42.52930481 56.96931982 45.57288209 61.04369476 49 65 C49.46873535 64.57154785 49.9374707 64.1430957 50.42041016 63.70166016 C55.48212131 59.16310406 60.76732208 55.20880368 66.375 51.375 C68.1427952 50.15359926 69.90970318 48.93091354 71.67578125 47.70703125 C72.56217285 47.0929541 73.44856445 46.47887695 74.36181641 45.84619141 C78.4682902 42.97249579 82.51383869 40.01678857 86.5625 37.0625 C106.04503564 22.88837233 106.04503564 22.88837233 112.1875 22.6875 C112.92355469 22.65011719 113.65960938 22.61273438 114.41796875 22.57421875 C120.69782861 23.60977809 124.58116572 27.15253883 128.22045898 32.07373047 C128.91570679 33.05817139 128.91570679 33.05817139 129.625 34.0625 C130.38695679 35.10881592 130.38695679 35.10881592 131.16430664 36.17626953 C135.58609932 42.29500878 139.83589883 48.53580055 144.07055664 54.78491211 C148.33120013 61.06585774 152.7323593 67.23212813 157.19506836 73.37060547 C160.83904748 78.38471195 164.43623285 83.42859802 168 88.5 C172.08019712 94.30403513 176.20867655 100.07000118 180.375 105.8125 C185.58112096 112.99120396 190.68262586 120.23803752 195.75146484 127.51416016 C200.28179275 134.00539514 204.89278908 140.43450505 209.5625 146.82617188 C221.21787635 162.83713808 221.21787635 162.83713808 220.5625 170.5 C220.43129316 177.25715239 223.01571784 180.64882459 227.34765625 185.625 C229 188 229 188 228.953125 190.13671875 C227.81883697 192.35415887 226.71522919 193.37528723 224.6875 194.8125 C224.09324219 195.25207031 223.49898437 195.69164062 222.88671875 196.14453125 C221 197 221 197 218.97265625 196.921875 C216.24646186 195.64785148 215.32264964 193.97518464 213.75 191.4375 C213.22921875 190.61121094 212.7084375 189.78492188 212.171875 188.93359375 C211.78515625 188.29550781 211.3984375 187.65742188 211 187 C206.4866257 188.51011396 202.99907734 191.02910495 199.25 193.875 C197.92538451 194.86189341 196.59982506 195.8475208 195.2734375 196.83203125 C194.58088867 197.34717285 193.88833984 197.86231445 193.17480469 198.39306641 C189.43611419 201.15553395 185.6612269 203.86569854 181.875 206.5625 C181.16504883 207.07474121 180.45509766 207.58698242 179.72363281 208.11474609 C176.25723589 210.57666632 173.08124987 212.65811045 169 214 C168.319375 213.0925 167.63875 212.185 166.9375 211.25 C162.69828345 206.21295337 157.78070745 203.47010085 151.1171875 202.88671875 C147.88391576 203.05971668 145.08331842 204.05426234 142.078125 205.2109375 C140.06702108 205.97455215 138.08863699 206.49665485 136 207 C128.64851711 196.88865808 121.38211937 186.72566921 114.23608398 176.46801758 C110.36044155 170.91505848 106.4215804 165.41305357 102.4375 159.9375 C97.97411462 153.80051443 93.6367868 147.59107022 89.375 141.3125 C85.0667321 134.9662776 80.65663202 128.72068231 76.09106445 122.55737305 C70.59625797 115.13117937 65.30852251 107.55984359 60 100 C53.9264198 91.35790113 47.82655845 82.73837452 41.625 74.1875 C36.41376776 67.00145213 31.30724949 59.74723058 26.2331543 52.46386719 C22.3585164 46.91224345 18.41969641 41.41234241 14.4375 35.9375 C9.78821716 29.52477018 5.20064952 23.07186218 0.6875 16.5625 C0.11765381 15.75095459 -0.45219238 14.93940918 -1.03930664 14.10327148 C-1.55871826 13.34860596 -2.07812988 12.59394043 -2.61328125 11.81640625 C-3.07516846 11.15068604 -3.53705566 10.48496582 -4.01293945 9.79907227 C-5 8 -5 8 -5 5 C-2.5 2.3125 -2.5 2.3125 0 0 Z " fill="#000000" transform="translate(283,268)"/>
<path d="M0 0 C3.90795461 3.38900906 7.64590199 6.93444401 11.31298828 10.58154297 C11.79364746 11.05817383 12.27430664 11.53480469 12.76953125 12.02587891 C30.67972597 30.04117315 42.79095604 52.85601739 51.31298828 76.58154297 C51.59126465 77.35578613 51.86954102 78.1300293 52.15625 78.92773438 C55.53558346 88.52732557 58.080551 98.2663883 60.25048828 108.20654297 C60.47438232 109.20202148 60.69827637 110.1975 60.92895508 111.22314453 C62.4422358 118.54463477 63.08835151 125.50715099 59.68798828 132.39404297 C55.92081006 137.44999269 51.95299527 139.52358924 45.87548828 140.51904297 C39.46618876 140.94414957 35.1835905 139.19090167 30.34814453 135.03076172 C25.88518675 129.61768888 24.94048516 122.49685365 23.47216797 115.80996704 C22.57029439 111.73108095 21.58991642 107.67158668 20.60205078 103.61279297 C20.40903381 102.81903763 20.21601685 102.02528229 20.01715088 101.20747375 C15.95507473 84.81712728 8.69110546 68.64871874 -0.68701172 54.58154297 C-0.54553711 55.61988281 -0.4040625 56.65822266 -0.25830078 57.72802734 C1.2158131 69.23511025 1.62455682 80.58248576 1.57373047 92.17675781 C1.56299833 95.07882566 1.57370393 97.98027479 1.58642578 100.88232422 C1.61012101 131.08926246 -3.17093938 151.91928283 -24.77294922 173.68310547 C-25.87822726 174.778381 -26.98606696 175.87108124 -28.09716797 176.96044922 C-30.55349971 179.46506266 -32.82830444 182.12043633 -35.10888672 184.78466797 C-36.5848765 186.46525039 -38.01568832 188.09388148 -39.68701172 189.58154297 C-40.34701172 189.58154297 -41.00701172 189.58154297 -41.68701172 189.58154297 C-43.20263672 188.00732422 -43.20263672 188.00732422 -44.93701172 185.89404297 C-54.34506867 174.92119626 -65.64024187 169.96290106 -79.87451172 168.70654297 C-80.57253906 168.65369141 -81.27056641 168.60083984 -81.98974609 168.54638672 C-85.50570015 168.19178051 -87.42449779 167.79996115 -90.17529297 165.51123047 C-90.67416016 164.87443359 -91.17302734 164.23763672 -91.68701172 163.58154297 C-90.25803027 160.16538419 -88.55026328 158.55859155 -85.68701172 156.26904297 C-81.64772406 152.42993239 -81.25250333 149.82427202 -80.99951172 144.33154297 C-80.44377624 137.44316742 -78.60023085 134.45429732 -73.56201172 130.08154297 C-71.82101932 128.62222371 -70.06149306 127.20074992 -68.265625 125.80957031 C-66.26639336 124.25433754 -64.38426055 122.58528576 -62.49951172 120.89404297 C-61.89107422 120.36681641 -61.28263672 119.83958984 -60.65576172 119.29638672 C-47.84535152 108.13811276 -40.67185449 101.8006394 -39.18701172 84.39404297 C-39.06737061 83.09281494 -38.94772949 81.79158691 -38.82446289 80.45092773 C-38.56717062 77.64449769 -38.31818734 74.83748878 -38.07519531 72.02978516 C-37.74556603 68.22614343 -37.39886694 64.42426391 -37.04751587 60.62257385 C-36.761177 57.51259876 -36.48120786 54.40207456 -36.203125 51.29135132 C-36.06926028 49.79743143 -35.93404577 48.30363176 -35.79736328 46.80996704 C-33.03366372 27.22038229 -33.03366372 27.22038229 -39.68701172 9.58154297 C-44.30844648 5.43388839 -48.96349804 3.2378348 -55.18701172 2.89404297 C-61.81979287 3.31681231 -67.59618146 5.50522365 -72.35107422 10.23779297 C-80.08254909 20.90813256 -78.70569203 39.7386014 -79.81201172 52.39404297 C-79.99522489 54.45462372 -80.17881571 56.51517093 -80.36279297 58.57568359 C-80.80855206 63.57726084 -81.24920474 68.57926363 -81.68701172 73.58154297 C-82.34701172 73.25154297 -83.00701172 72.92154297 -83.68701172 72.58154297 C-84.41476869 69.59884784 -85.02016028 66.66577027 -85.56201172 63.64794922 C-85.73200684 62.74084702 -85.90200195 61.83374481 -86.07714844 60.89915466 C-86.62196262 57.98223816 -87.15471511 55.06326712 -87.68701172 52.14404297 C-88.0455747 50.20964748 -88.40494013 48.27540056 -88.76513672 46.34130859 C-89.27697967 43.59219433 -89.78772195 40.84293638 -90.29199219 38.09242249 C-91.22820264 32.99014307 -92.22005518 27.90444494 -93.28262329 22.82684326 C-95.5865637 10.03459274 -93.76623886 -3.25159238 -86.87451172 -14.35595703 C-81.57076323 -21.62356202 -76.39881946 -25.13621448 -67.62451172 -27.10595703 C-42.83965099 -29.07300947 -18.47531308 -15.53423574 0 0 Z " fill="#000000" transform="translate(222.68701171875,132.41845703125)"/>
<path d="M0 0 C0.99 2.31 1.98 4.62 3 7 C2.443125 7.17015625 1.88625 7.3403125 1.3125 7.515625 C-3.45316151 9.02904453 -7.85592789 10.7877148 -12.2734375 13.1328125 C-14 14 -14 14 -17 15 C-17 15.66 -17 16.32 -17 17 C2.8 17 22.6 17 43 17 C39.19609319 13.95687455 36.30245008 12.00113957 32 10 C36.625 5.125 36.625 5.125 40 4 C45.42920613 6.96543908 50.22305712 11.44611424 53 17 C55.43659351 17.21214123 57.80909528 17.31968996 60.25 17.375 C74.44612602 18.01926863 85.88391625 22.33032501 95.8125 32.75 C102.95389203 41.41083714 105.13780516 50.82720786 105.23828125 61.73828125 C105.246353 62.57787888 105.25442474 63.4174765 105.26274109 64.28251648 C105.27653439 66.0551042 105.28727767 67.82771796 105.29516602 69.6003418 C105.30668819 71.403156 105.32714384 73.20593602 105.35668945 75.00854492 C105.39956037 77.62702377 105.41556023 80.24449414 105.42578125 82.86328125 C105.44328934 83.65938309 105.46079742 84.45548492 105.47883606 85.27571106 C105.45256944 92.13572929 103.51919018 97.48080982 98.625 102.375 C89.63138783 107.9424742 78.81038984 107.14898172 68.61425781 107.14526367 C67.27295845 107.14826064 65.93165994 107.1516644 64.59036255 107.15544128 C60.96617454 107.16423149 57.34201018 107.16661731 53.71781254 107.16725707 C51.44758169 107.16797049 49.17735675 107.17011034 46.90712738 107.17275429 C38.96998212 107.18199178 31.03285359 107.18609124 23.09570312 107.18530273 C15.72489322 107.18470262 8.35415666 107.1952455 0.9833653 107.2110464 C-5.36767757 107.22417069 -11.71869662 107.22948458 -18.06975293 107.22884732 C-21.8527696 107.22859374 -25.63572104 107.23136716 -29.41872406 107.24202538 C-32.98107517 107.2517889 -36.5432998 107.25172974 -40.10565567 107.24450874 C-42.01649853 107.24298391 -43.92734161 107.2512519 -45.83816528 107.25994873 C-67.18971039 107.18314594 -67.18971039 107.18314594 -75 101 C-78.91265233 95.39953585 -79.59542069 90.0982249 -79.53125 83.41796875 C-79.5350769 82.52314285 -79.53890381 81.62831696 -79.54284668 80.70637512 C-79.5455542 78.82303739 -79.53827473 76.93966131 -79.52148438 75.05639648 C-79.50013363 72.20534387 -79.52128587 69.35683269 -79.546875 66.50585938 C-79.56973913 51.74524363 -77.58732951 40.6829213 -66.89453125 29.87109375 C-54.7752659 18.54448259 -42.89188875 17.6490135 -27 18 C-26.7525 17.278125 -26.505 16.55625 -26.25 15.8125 C-23.56304528 9.76685189 -19.873203 6.99000893 -14 4.25 C-13.38382812 3.94707031 -12.76765625 3.64414062 -12.1328125 3.33203125 C-7.9483914 1.31165625 -4.63613074 0 0 0 Z M-26 29 C-26 30.98 -26 32.96 -26 35 C-27.65 35 -29.3 35 -31 35 C-31 36.65 -31 38.3 -31 40 C-1.96 40 27.08 40 57 40 C57 38.35 57 36.7 57 35 C55.35 35 53.7 35 52 35 C52 33.02 52 31.04 52 29 C50.02 29 48.04 29 46 29 C46 30.98 46 32.96 46 35 C23.89 35 1.78 35 -21 35 C-21 33.02 -21 31.04 -21 29 C-22.65 29 -24.3 29 -26 29 Z M-26 46 C-26 57.88 -26 69.76 -26 82 C-24.35 82 -22.7 82 -21 82 C-21 70.12 -21 58.24 -21 46 C-22.65 46 -24.3 46 -26 46 Z M46 46 C46 57.88 46 69.76 46 82 C47.98 82 49.96 82 52 82 C52 70.12 52 58.24 52 46 C50.02 46 48.04 46 46 46 Z " fill="#000000" transform="translate(79,288)"/>
<path d="M0 0 C0.33 0 0.66 0 1 0 C1.14335174 14.97295181 0.76057228 29.86010832 0 44.8125 C-0.32936909 51.348487 -0.63895693 57.88409821 -0.8913269 64.42355347 C-0.96240181 66.10861342 -1.0450421 67.79323547 -1.14065552 69.4770813 C-1.92878661 80.93750563 -1.92878661 80.93750563 3.21484375 90.87695312 C3.82457031 91.51568359 4.43429688 92.15441406 5.0625 92.8125 C6.35821723 94.31664716 7.65108647 95.82325138 8.94140625 97.33203125 C9.61316895 98.09338379 10.28493164 98.85473633 10.97705078 99.63916016 C14.36824437 103.59678048 17.41466768 107.80270129 20.5 112 C25.32318025 118.47486014 30.21458708 124.88948951 35.1875 131.25 C63.40359051 167.39084561 63.40359051 167.39084561 62 184 C60.20584769 190.59155958 56.58799342 196.66495666 50.78515625 200.44140625 C42.66459907 205.0610425 34.71963485 206.6926546 25.42578125 204.3515625 C14.0603433 199.71017946 7.71722947 189.93377045 0.75390625 180.38183594 C-2.44001913 176.04442836 -5.72601813 171.77709235 -9 167.5 C-14.2451559 160.63062159 -19.45828081 153.73909053 -24.6328125 146.81640625 C-28.22320385 142.01948772 -31.85462809 137.25523192 -35.5 132.5 C-37.12137804 130.38116201 -38.74210388 128.26182815 -40.36230469 126.14208984 C-41.47150671 124.69126418 -42.58155856 123.24108789 -43.69238281 121.79150391 C-45.34174517 119.63570822 -46.98415928 117.47478581 -48.625 115.3125 C-49.12193359 114.66539062 -49.61886719 114.01828125 -50.13085938 113.3515625 C-57 104.26257477 -57 104.26257477 -57 98 C-55.90042969 97.96261719 -54.80085937 97.92523438 -53.66796875 97.88671875 C-37.15927707 97.48184282 -37.15927707 97.48184282 -23 90 C-17.12604642 80.55685936 -16.78827824 72.04973237 -16.75976562 61.18286133 C-16.75013491 58.96851947 -16.71911267 56.75513715 -16.6875 54.54101562 C-16.62344489 45.96786532 -17.43415484 38.23300935 -20 30 C-20.39806788 28.58395959 -20.79427947 27.16739412 -21.1875 25.75 C-21.455625 24.8425 -21.72375 23.935 -22 23 C-21.07058594 22.0821875 -20.14117187 21.164375 -19.18359375 20.21875 C-12.90050633 13.9899661 -6.68989698 7.78485998 -1 1 C-0.67 0.67 -0.34 0.34 0 0 Z " fill="#000000" transform="translate(206,302)"/>
<path d="M0 0 C9.9835924 7.39587196 17.79572097 18.32814853 20.3359375 30.73046875 C21.62803017 45.19863552 20.89373102 58.62987004 11.9609375 70.66796875 C10.77211562 72.03929633 9.56460671 73.39472597 8.3359375 74.73046875 C7.83707031 75.34277344 7.33820313 75.95507812 6.82421875 76.5859375 C0.13794171 84.21536697 -11.67228679 89.87530642 -21.69238281 90.94750977 C-36.66258958 91.78089919 -49.6480612 89.25913949 -61.6640625 79.73046875 C-71.79979234 70.49142275 -78.03874979 58.92875057 -78.87890625 45.2265625 C-79.24041413 30.89638995 -75.89385808 18.60167353 -66.5390625 7.54296875 C-48.93819261 -10.95827567 -21.35418397 -13.99424678 0 0 Z " fill="#000000" transform="translate(133.6640625,13.26953125)"/>
<path d="M0 0 C4.41854291 3.11306432 8.02390999 6.75922996 9.75 11.9375 C10.22215797 20.53775122 9.46204117 29.13567352 8.7265625 37.69921875 C8.62032562 38.97046097 8.51408875 40.24170319 8.40463257 41.5514679 C8.18014444 44.21986432 7.95361577 46.88798978 7.72363281 49.5559082 C7.43136542 52.9506985 7.14927059 56.34624662 6.87001991 59.74212933 C6.59888176 63.01998946 6.31849638 66.29705702 6.0390625 69.57421875 C5.94001617 70.78067551 5.84096985 71.98713226 5.73892212 73.23014832 C4.15138448 91.36542653 4.15138448 91.36542653 -0.0625 95.75 C-0.67867188 96.39453125 -1.29484375 97.0390625 -1.9296875 97.703125 C-10.49915861 105.95520829 -19.32243314 113.90500005 -28.390625 121.60546875 C-35.52264575 127.67193461 -42.49083416 133.87058207 -49.34765625 140.24609375 C-68.34501192 157.86275332 -68.34501192 157.86275332 -76.41015625 157.96484375 C-82.86948606 157.54428638 -86.55764874 155.18112605 -91.5 151.0625 C-95.52498499 146.17501822 -95.41179105 141.51665224 -94.9296875 135.5 C-93.15455854 128.80755979 -87.94291342 124.48259504 -83 120 C-82.32686768 119.3810083 -81.65373535 118.7620166 -80.96020508 118.12426758 C-77.0624948 114.55085585 -73.13452013 111.01424792 -69.125 107.56640625 C-66.86248819 105.60084911 -64.65309317 103.58076691 -62.4375 101.5625 C-59.03916448 98.49003227 -55.57409477 95.55307378 -52 92.6875 C-51.09765625 91.92308594 -50.1953125 91.15867187 -49.265625 90.37109375 C-47.0432516 88.57764993 -44.93002547 87.06901851 -42.546875 85.53515625 C-37.31107883 81.87606775 -33.20510632 78.25355546 -31.38916016 71.94873047 C-30.07147958 64.42646933 -29.75057678 56.82842212 -29.44775391 49.20898438 C-29.1655264 42.49837065 -28.54837976 35.81404604 -27.94198608 29.12634277 C-27.7535039 26.97744815 -27.58718369 24.82778232 -27.42504883 22.67675781 C-27.31511408 21.34696393 -27.20470491 20.01720915 -27.09375 18.6875 C-27.00287109 17.52734375 -26.91199219 16.3671875 -26.81835938 15.171875 C-25.89825996 9.93584535 -23.87729302 5.98295112 -19.75 2.625 C-19.1621875 2.13386719 -18.574375 1.64273438 -17.96875 1.13671875 C-12.85673119 -2.4300762 -5.66699521 -1.85267151 0 0 Z " fill="#000000" transform="translate(175.25,140.0625)"/>
<path d="M0 0 C18.81 0 37.62 0 57 0 C56.37804577 6.21954226 55.72708966 12.09794954 54.48120117 18.16845703 C54.33142319 18.91784546 54.1816452 19.66723389 54.02732849 20.43933105 C53.53785084 22.87993055 53.04096555 25.31893808 52.54296875 27.7578125 C52.19514938 29.47311263 51.84743911 31.18843489 51.49983215 32.90377808 C50.77298373 36.48331817 50.04190813 40.06196607 49.30834961 43.64013672 C48.37262537 48.20827139 47.45203129 52.77931352 46.53513622 57.35125923 C45.82306457 60.88917377 45.10068823 64.4249274 44.37548256 67.96017075 C44.031746 69.64419837 43.69168219 71.32898028 43.35548973 73.01453018 C42.88344557 75.37548639 42.39695495 77.73304046 41.90698242 80.09033203 C41.77332275 80.77521698 41.63966309 81.46010193 41.50195312 82.16574097 C39.71865475 90.56079563 36.200047 97.40075178 29.0078125 102.37890625 C21.44129309 107.2430973 14.98587882 107.85442651 6 107 C-2.66176942 104.25330733 -8.47419249 98.80311639 -13 91 C-17.33735094 79.72288756 -14.10043621 68.20353406 -11.71875 56.8359375 C-11.38159157 55.19130658 -11.04530204 53.54649732 -10.70983887 51.90151978 C-9.83072021 47.60245429 -8.93992777 43.30589144 -8.04656982 39.00976562 C-6.97382407 33.83854413 -5.91580056 28.66429244 -4.85527039 23.49055481 C-3.24803107 15.65800842 -1.62229599 7.82950945 0 0 Z " fill="#000000" transform="translate(69,400)"/>
<path d="M0 0 C4.53707983 2.56299391 7.24812863 4.95973835 8.82421875 10.08203125 C9.59677989 15.43128368 9.23303852 19.99420439 6.21875 24.57421875 C2.62971167 28.45480361 -1.66120544 29.89923762 -6.80078125 30.51953125 C-12.08563561 29.83445754 -15.51651525 28.08102819 -18.98828125 24.08203125 C-22.21971831 19.65034614 -22.61946893 16.49502091 -22.17578125 11.08203125 C-20.77726272 6.30747117 -18.82984146 3.03547424 -14.42578125 0.58203125 C-9.42478575 -1.48319467 -5.072235 -2.13999143 0 0 Z " fill="#000000" transform="translate(440.17578125,476.91796875)"/>
</svg>
