<?xml version="1.0" encoding="UTF-8"?>
<svg version="1.1" xmlns="http://www.w3.org/2000/svg" width="512" height="512">
<path d="M0 0 C21.0935611 18.0099284 37.95369499 45.04995264 40.98876953 73.13525391 C43.53661379 107.33000577 37.49920035 140.527547 14.62597656 167.12451172 C-5.1941991 189.46078958 -31.56366608 205.75406204 -61.81640625 208.75 C-65.49293089 208.88161884 -69.16160663 208.8635114 -72.83984375 208.82421875 C-73.80365967 208.81886108 -74.76747559 208.81350342 -75.76049805 208.8079834 C-78.11256219 208.79413057 -80.46443522 208.77469424 -82.81640625 208.75 C-82.81364087 209.75422375 -82.81087549 210.75844749 -82.80802631 211.79310226 C-82.74135158 236.25707663 -82.69209287 260.72103918 -82.66096973 285.1850853 C-82.64551778 297.01583846 -82.62446022 308.84653152 -82.59008789 320.67724609 C-82.56013436 330.99197978 -82.5408191 341.30666992 -82.53414077 351.62144589 C-82.5302386 357.08023297 -82.52110281 362.53889547 -82.49921608 367.99764252 C-82.47875686 373.14234894 -82.47259146 378.28688022 -82.47708321 383.43162346 C-82.47626221 385.31328472 -82.47035308 387.19495223 -82.45878983 389.07657814 C-82.33616768 410.07135292 -86.85550297 427.1965857 -101.81640625 442.75 C-120.31709098 460.4981145 -141.13270644 461.20040777 -165.2824707 461.15405273 C-167.96776433 461.15976118 -170.65303303 461.16662783 -173.33831787 461.17485046 C-179.85176831 461.19196921 -186.36512199 461.19289287 -192.87858907 461.18763756 C-198.17801794 461.1835813 -203.4774184 461.18505662 -208.77684593 461.19038582 C-209.53368934 461.19113424 -210.29053274 461.19188266 -211.0703108 461.19265376 C-212.60829416 461.19418539 -214.14627752 461.19572374 -215.68426087 461.19726873 C-230.07888324 461.21096897 -244.47345113 461.20557377 -258.86807223 461.19408352 C-272.00617249 461.18415591 -285.14413181 461.19708803 -298.28221033 461.22101771 C-311.80670218 461.24546359 -325.33112854 461.255003 -338.85564202 461.24836498 C-346.43486803 461.24488464 -354.01398578 461.24702589 -361.59319496 461.26461601 C-368.04577538 461.27940698 -374.4981713 461.27988429 -380.95074836 461.2625451 C-384.23591113 461.25408847 -387.52068106 461.25395949 -390.80583763 461.26719666 C-414.66252706 461.35593768 -434.71590756 458.92871404 -452.81640625 441.75 C-465.39727154 428.65969826 -471.29932425 412.38773393 -471.25 394.44140625 C-471.25524185 393.31226303 -471.2604837 392.18311981 -471.2658844 391.01976013 C-471.27226269 388.65421364 -471.27102255 386.28863526 -471.26245117 383.9230957 C-471.2538714 380.29777518 -471.28287458 376.67399627 -471.31445312 373.04882812 C-471.31606362 370.74218797 -471.31549051 368.43554503 -471.3125 366.12890625 C-471.32373398 365.04662247 -471.33496796 363.96433868 -471.34654236 362.84925842 C-471.33716141 361.84398605 -471.32778046 360.83871368 -471.31811523 359.80297852 C-471.31794907 358.9212648 -471.3177829 358.03955109 -471.31761169 357.13111877 C-470.6538059 353.97752089 -469.25514004 352.78459172 -466.81640625 350.75 C-464.11351317 349.39855346 -462.01570819 349.63024835 -458.98974609 349.63647461 C-457.76863129 349.63655014 -456.54751648 349.63662567 -455.28939819 349.63670349 C-453.9520463 349.64181048 -452.61469482 349.64702648 -451.27734375 349.65234375 C-449.91256766 349.6542086 -448.54779091 349.65563219 -447.18301392 349.65663147 C-443.58925532 349.66045137 -439.99553708 349.67027717 -436.40179443 349.68133545 C-432.73531643 349.69156089 -429.0688319 349.69613152 -425.40234375 349.70117188 C-418.20701284 349.7118999 -411.0117152 349.72897001 -403.81640625 349.75 C-403.81862686 348.60033752 -403.82084747 347.45067505 -403.82313538 346.26617432 C-403.93891836 284.00512484 -403.83658778 221.74815975 -403.42684871 159.48838615 C-403.38942198 153.79032166 -403.35399358 148.09224717 -403.31936646 142.39416504 C-403.27195587 134.62429316 -403.21942857 126.85446716 -403.16352844 119.08465195 C-403.14311778 116.23190985 -403.12438756 113.3791655 -403.10731506 110.52640152 C-403.06040461 102.8470027 -402.98619821 95.16865532 -402.86888504 87.4899826 C-402.83282719 84.92026404 -402.80530587 82.35041591 -402.78492355 79.78052521 C-402.75048998 75.89537639 -402.68361408 72.01200399 -402.60913086 68.12744141 C-402.60461442 66.95284048 -402.60009798 65.77823956 -402.59544468 64.56804466 C-402.5680115 63.48127748 -402.54057833 62.39451031 -402.51231384 61.27481079 C-402.49861724 60.3250065 -402.48492064 59.37520222 -402.47080898 58.39661598 C-401.51540796 54.53266573 -400.01135988 53.09256075 -396.81640625 50.75 C-393.77939311 50.2683399 -391.31117589 50.09346288 -388.28068542 50.14872742 C-386.99408357 50.14231923 -386.99408357 50.14231923 -385.68148977 50.13578159 C-382.80820556 50.12754758 -379.93638205 50.15504309 -377.06323242 50.18237305 C-375.00340815 50.18378343 -372.94358136 50.18299173 -370.88375854 50.18016052 C-365.29103796 50.17872459 -359.69885238 50.20814353 -354.10625625 50.24303031 C-348.26197117 50.27426402 -342.41767414 50.27722221 -336.57331848 50.28315735 C-325.50587678 50.29870452 -314.43868172 50.33974503 -303.37134868 50.3899048 C-290.77174911 50.4457709 -278.17213784 50.47327792 -265.57244527 50.49838197 C-239.65362881 50.55065993 -213.73503134 50.63861941 -187.81640625 50.75 C-187.61946671 50.14327454 -187.42252716 49.53654907 -187.21961975 48.91143799 C-186.95644455 48.10954041 -186.69326935 47.30764282 -186.42211914 46.48144531 C-186.1633046 45.68909485 -185.90449005 44.89674438 -185.63783264 44.0803833 C-175.98633578 16.69912633 -151.30029434 -5.05894361 -125.80957031 -17.33886719 C-84.15021036 -36.38256284 -35.01048342 -29.04169802 0 0 Z M-147.81640625 19.75 C-148.41582031 20.2759375 -149.01523437 20.801875 -149.6328125 21.34375 C-165.27258417 35.56832192 -175.71356265 59.74398659 -176.9934082 80.63989258 C-177.28227431 94.80353865 -177.49866823 108.25406841 -172.81640625 121.75 C-172.56971191 122.46333496 -172.32301758 123.17666992 -172.06884766 123.91162109 C-162.71891239 150.0673332 -144.21355059 170.02666262 -119.44140625 182.44140625 C-95.15576655 193.45273607 -67.68791385 195.2807495 -42.56640625 186 C-15.57073633 175.43704856 4.85314604 156.42828803 16.49609375 129.85546875 C27.28814896 104.13480176 26.65312756 76.43561792 16.18359375 50.75 C11.99548182 41.48362805 6.90311367 33.41051778 0.18359375 25.75 C-0.41839844 25.00492188 -1.02039063 24.25984375 -1.640625 23.4921875 C-16.64446785 5.43724872 -39.72315556 -6.03778092 -62.81640625 -9.25 C-95.69858547 -11.62747157 -123.92365258 -3.40825672 -147.81640625 19.75 Z M-384.81640625 67.75 C-385.42587105 126.60688611 -385.94775444 185.46245687 -386.34550858 244.32096863 C-386.37317654 248.4119635 -386.40119243 252.50295591 -386.42931914 256.59394765 C-386.48877097 265.24231816 -386.5468945 273.89069645 -386.60360336 282.53908539 C-386.62255119 285.42605624 -386.64190401 288.31302386 -386.66165543 291.19998932 C-386.79467848 310.71699297 -386.84069269 330.2326382 -386.81640625 349.75 C-385.87180668 349.75331015 -384.92720711 349.75662029 -383.95398331 349.76003075 C-360.98653263 349.84096809 -338.01914912 349.93326614 -315.05179214 350.03752708 C-303.94502392 350.08768261 -292.8382632 350.13412519 -281.73144531 350.171875 C-272.05253114 350.20478102 -262.3736746 350.24460453 -252.69482398 350.29279006 C-247.56834387 350.31806885 -242.44190207 350.33984608 -237.31537628 350.35334396 C-232.49241723 350.36615176 -227.66958944 350.38819234 -222.84670258 350.41738319 C-221.07458411 350.426469 -219.30244451 350.43215153 -217.53030396 350.43421364 C-215.11431138 350.4375291 -212.69869255 350.45298693 -210.28277588 350.4715271 C-209.57849276 350.46959237 -208.87420964 350.46765763 -208.1485846 350.46566427 C-204.56449395 350.5068981 -201.80873644 350.67318367 -198.81640625 352.75 C-197.66897648 355.04485955 -197.68053983 356.36527983 -197.65869141 358.91748047 C-197.64842926 359.77953094 -197.63816711 360.64158142 -197.62759399 361.52975464 C-197.62029266 362.46610748 -197.61299133 363.40246033 -197.60546875 364.3671875 C-197.57736642 366.35677858 -197.5487018 368.34636179 -197.51953125 370.3359375 C-197.47852848 373.46679172 -197.44163985 376.59750422 -197.41503906 379.72851562 C-197.23898265 398.80331682 -196.01481341 414.96914544 -182.26171875 429.42578125 C-172.38334506 438.8149703 -160.55928558 443.92347253 -146.81640625 443.75 C-131.25577778 442.43473231 -119.75167699 436.11202488 -109.671875 424.26171875 C-99.55007771 410.56000158 -99.52102155 396.15605467 -99.58935547 379.8762207 C-99.58992044 377.98299668 -99.58960134 376.08977223 -99.58847046 374.19654846 C-99.58789931 369.08575368 -99.59961495 363.97505378 -99.61361837 358.86428094 C-99.62616555 353.51248681 -99.62729937 348.16069024 -99.62966919 342.80888367 C-99.63587227 332.68734569 -99.65226718 322.56585118 -99.67236817 312.4443323 C-99.69476371 300.91588668 -99.70572978 289.38743893 -99.71575904 277.85897696 C-99.73663448 254.15596059 -99.77178759 230.45298274 -99.81640625 206.75 C-100.65793495 206.50829323 -100.65793495 206.50829323 -101.51646423 206.26170349 C-104.10678002 205.51341446 -106.69397308 204.75482031 -109.28125 203.99609375 C-110.6044928 203.61632385 -110.6044928 203.61632385 -111.95446777 203.22888184 C-120.46681888 200.71810086 -128.11286259 197.11394624 -135.81640625 192.75 C-136.78707031 192.20730469 -137.75773438 191.66460937 -138.7578125 191.10546875 C-151.1362089 183.70005256 -164.67473828 172.76009194 -171.81199551 159.9652195 C-174.0246973 156.19948513 -174.0246973 156.19948513 -177.71147346 154.11388779 C-180.05876984 153.88291166 -182.31622728 153.87535391 -184.67407227 153.94287109 C-185.55595215 153.9401268 -186.43783203 153.93738251 -187.34643555 153.93455505 C-189.25621847 153.93329944 -191.16606583 153.94822479 -193.07562447 153.97751999 C-196.0980816 154.02386328 -199.11807745 154.02829948 -202.14085388 154.02212524 C-207.46454673 154.01819779 -212.78724096 154.0516448 -218.11071777 154.097229 C-226.63489618 154.16966207 -235.15854067 154.21084205 -243.68302727 154.20399857 C-246.66163954 154.21085993 -249.63875798 154.24914983 -252.61708069 154.28939819 C-254.44076271 154.29371518 -256.26444832 154.29676435 -258.08813477 154.29833984 C-259.33115608 154.32777428 -259.33115608 154.32777428 -260.59928894 154.35780334 C-264.53702778 154.33114825 -266.39812381 154.12862448 -269.36582947 151.44229126 C-271.34373976 147.77126145 -270.91675767 145.71126513 -269.81640625 141.75 C-268.7495575 140.06608582 -268.7495575 140.06608582 -266.81640625 138.75 C-264.11933698 138.44042684 -261.64802672 138.31250234 -258.94848633 138.31762695 C-258.14825546 138.3074353 -257.3480246 138.29724365 -256.52354431 138.28674316 C-253.87760483 138.25654069 -251.23202693 138.2473363 -248.5859375 138.23828125 C-246.75175262 138.22143991 -244.91757933 138.20329042 -243.0834198 138.18388367 C-238.25509255 138.13631821 -233.42681224 138.10655125 -228.59832764 138.08044434 C-223.67157722 138.05067178 -218.74498866 138.00413014 -213.81835938 137.95898438 C-204.15112622 137.87287683 -194.48385981 137.80556474 -184.81640625 137.75 C-185.43346436 135.95320801 -185.43346436 135.95320801 -186.06298828 134.12011719 C-186.60865412 132.51245655 -187.15404983 130.90470421 -187.69921875 129.296875 C-187.96968018 128.5116748 -188.2401416 127.72647461 -188.51879883 126.91748047 C-195.09153584 107.44937358 -194.50782609 88.04703804 -192.81640625 67.75 C-256.17640625 67.75 -319.53640625 67.75 -384.81640625 67.75 Z M-453.81640625 367.75 C-455.20800025 401.53009424 -455.20800025 401.53009424 -440.06640625 429.0625 C-427.76054255 440.66832954 -414.24174362 443.92967898 -397.73010254 443.87025452 C-396.84938694 443.87110894 -395.96867133 443.87196337 -395.06126738 443.87284368 C-392.12871443 443.87448254 -389.19621949 443.86900335 -386.26367188 443.86352539 C-384.1541443 443.86324315 -382.04461663 443.86340198 -379.93508911 443.8639679 C-374.22086042 443.86425442 -368.50665278 443.85838099 -362.79242897 443.85139394 C-356.8160068 443.8451364 -350.83958412 443.8445547 -344.86315918 443.84336853 C-333.551561 443.8402623 -322.2399725 443.83205844 -310.92837858 443.82201904 C-298.04814921 443.81083593 -285.16791937 443.80534191 -272.28768635 443.80032361 C-245.79725428 443.78987525 -219.30683081 443.7722895 -192.81640625 443.75 C-193.2270079 443.27310226 -193.63760956 442.79620453 -194.06065369 442.30485535 C-194.86968895 441.36347466 -194.86968895 441.36347466 -195.69506836 440.40307617 C-196.22942001 439.78180344 -196.76377167 439.1605307 -197.3143158 438.52043152 C-215.36139101 417.24933517 -213.06158794 396.43309592 -213.81640625 367.75 C-293.01640625 367.75 -372.21640625 367.75 -453.81640625 367.75 Z " fill="#000000" transform="translate(470.81640625,39.25)"/>
<path d="M0 0 C2.58455285 1.89533875 2.96275506 2.88826517 4 6 C4.06802967 7.72795352 4.08495645 9.45835365 4.0625 11.1875 C4.05347656 12.08855469 4.04445313 12.98960938 4.03515625 13.91796875 C4.02355469 14.60503906 4.01195312 15.29210937 4 16 C5.2065625 16.061875 5.2065625 16.061875 6.4375 16.125 C15.18469882 18.2734348 21.85770664 24.83793454 27 32 C30.99786272 38.85830534 32.31945949 46.1411141 31 54 C28.9375 57.25 28.9375 57.25 26 59 C21.79164098 59.75149268 19.86349748 59.5494984 16.25 57.25 C13.47456318 53.2410357 12.84005098 49.59179004 11.79296875 44.8828125 C10.49065016 40.14827495 8.53163429 37.46682673 4.1796875 34.9453125 C-1.42123342 32.46333578 -6.23319037 32.58073364 -11.91796875 34.72265625 C-15.80125914 36.63532166 -18.36397876 38.97333027 -20.34375 42.94140625 C-22.00702262 48.15893405 -21.61529909 53.18828601 -19.875 58.3125 C-16.43286405 63.24622819 -13.19014385 65.99865169 -7.3203125 67.22265625 C-5.59166568 67.52128854 -3.85963533 67.80088709 -2.125 68.0625 C8.35770266 69.70484247 16.79073548 72.88400324 24 81 C30.60355404 91.11303504 32.09552171 100.11344022 31 112 C28.60520705 122.48235086 22.20974693 129.59584747 13.5625 135.5546875 C10.78226215 137.12280946 8.05197637 138.08618149 5 139 C4.89042969 139.90363281 4.78085937 140.80726563 4.66796875 141.73828125 C4.50941406 142.91777344 4.35085938 144.09726563 4.1875 145.3125 C4.03667969 146.48425781 3.88585937 147.65601563 3.73046875 148.86328125 C2.99247376 152.03231856 2.62716918 153.17540279 0 155 C-3.90129801 156.01144763 -6.09079221 156.40409235 -9.8125 154.75 C-12 153 -12 153 -14 150 C-14.1953125 147.08203125 -14.1953125 147.08203125 -14.125 143.8125 C-14.10695313 142.72582031 -14.08890625 141.63914063 -14.0703125 140.51953125 C-14.04710937 139.68808594 -14.02390625 138.85664063 -14 138 C-14.73476563 137.88785156 -15.46953125 137.77570313 -16.2265625 137.66015625 C-24.0731676 135.7924432 -30.48876336 129.44462377 -35 123 C-38.76952882 116.14839442 -41.11427721 108.87953173 -40 101 C-38.4375 98.0625 -38.4375 98.0625 -36 96 C-32.08091414 94.85990229 -29.96841496 94.59111368 -26.1875 96.1875 C-22.74165883 99.04262554 -21.8662049 102.06391025 -21.125 106.375 C-20.04678668 111.34948419 -18.54421976 115.18512324 -14.2421875 118.25390625 C-9.35217523 121.00573669 -5.56017923 121.62776217 0 121 C3.26750881 119.65873157 3.26750881 119.65873157 6 118 C6.99 117.67 7.98 117.34 9 117 C10.13545562 114.70465742 10.13545562 114.70465742 11 112 C11.391875 111.2575 11.78375 110.515 12.1875 109.75 C13.69611766 104.64390945 12.9168244 99.72362987 10.4375 95.0625 C9.963125 94.381875 9.48875 93.70125 9 93 C9 92.34 9 91.68 9 91 C3.53931979 88.16853619 -1.01940346 86.7691547 -7.1875 86.1875 C-17.33692632 85.02512516 -26.03944513 81.13061204 -32.58984375 73.03515625 C-38.76585186 64.44310584 -41.08635718 55.5316293 -40 45 C-38.27142575 35.40641291 -33.49112581 27.37778768 -25.87109375 21.28515625 C-18.17629179 16 -18.17629179 16 -14 16 C-14.05220703 15.00419922 -14.05220703 15.00419922 -14.10546875 13.98828125 C-14.38504937 4.86862785 -14.38504937 4.86862785 -11 1 C-7.44857238 -1.79040742 -4.21638428 -0.99659992 0 0 Z " fill="#000000" transform="translate(398,53)"/>
<path d="M0 0 C0.96590057 -0.00708481 1.93180115 -0.01416962 2.92697144 -0.02146912 C3.98007004 -0.0189917 5.03316864 -0.01651428 6.11817932 -0.01396179 C7.23239258 -0.01907272 8.34660583 -0.02418365 9.49458313 -0.02944946 C13.18240206 -0.04336403 16.87003451 -0.0423873 20.55787659 -0.04008484 C23.11851064 -0.04397065 25.67914405 -0.04830508 28.23977661 -0.05307007 C33.6089361 -0.06053624 38.97802697 -0.06037612 44.34718323 -0.05497742 C50.54908621 -0.04893717 56.75076236 -0.06125077 62.95262665 -0.08254749 C68.92416961 -0.10229761 74.89564235 -0.10533606 80.86721992 -0.10181236 C83.40577286 -0.10232629 85.94432937 -0.10757737 88.48286247 -0.11762428 C92.03075071 -0.12994257 95.57811219 -0.12322424 99.12599182 -0.11161804 C100.70260338 -0.12308365 100.70260338 -0.12308365 102.31106567 -0.13478088 C111.29606469 -0.06972228 111.29606469 -0.06972228 115.18678284 3.26069641 C116.77929927 6.44572928 116.57808044 9.79393692 116.18678284 13.26069641 C114.44424939 16.49682995 113.7149234 17.08464956 110.18678284 18.26069641 C108.61206279 18.35824183 107.03357456 18.3998993 105.45585632 18.40786743 C103.99644623 18.41860039 103.99644623 18.41860039 102.5075531 18.42955017 C100.90848618 18.43358353 100.90848618 18.43358353 99.27711487 18.43769836 C97.59138367 18.44755516 97.59138367 18.44755516 95.87159729 18.45761108 C92.14592933 18.47735166 88.42030165 18.48900702 84.69459534 18.49897766 C83.42381008 18.50305319 82.15302483 18.50712872 80.84373093 18.51132774 C74.81399084 18.53003809 68.78427522 18.54460485 62.75451386 18.55293971 C55.79734823 18.56271587 48.84050044 18.58904852 41.88344681 18.62944061 C35.85476914 18.66324028 29.82624583 18.67508462 23.79746628 18.67914391 C21.23377702 18.68402377 18.6700915 18.69567723 16.10646439 18.7141819 C12.52246316 18.73844838 8.93929756 18.73763096 5.35523987 18.73066711 C4.29324371 18.74347717 3.23124756 18.75628723 2.1370697 18.76948547 C-2.30901649 18.73793688 -5.04630849 18.70450623 -8.94874573 16.44616699 C-11.55471095 13.39154238 -11.81321716 11.24011518 -11.81321716 7.26069641 C-10.59251081 4.36954979 -9.67780074 2.79516549 -7.00076199 1.14027119 C-4.5076503 0.13783314 -2.68269021 0.00657289 0 0 Z " fill="#000000" transform="translate(210.81321716308594,248.7393035888672)"/>
<path d="M0 0 C0.98135422 -0.00852997 1.96270844 -0.01705994 2.97380066 -0.02584839 C4.04919601 -0.02494202 5.12459137 -0.02403564 6.23257446 -0.02310181 C7.36614883 -0.02981903 8.49972321 -0.03653625 9.66764832 -0.04345703 C13.42582548 -0.06250016 17.18382467 -0.06636444 20.94204712 -0.06851196 C23.54895095 -0.07493549 26.15585405 -0.08166351 28.76275635 -0.08868408 C34.23203697 -0.101477 39.70126918 -0.10444878 45.17056274 -0.10317993 C51.4889467 -0.10197868 57.80698896 -0.12307625 64.12528646 -0.15466726 C70.20630461 -0.18398687 76.28715901 -0.19115562 82.36824417 -0.18996048 C84.95425436 -0.1923237 87.54026696 -0.20118747 90.12623215 -0.21662521 C93.7413963 -0.23618575 97.35567783 -0.23048534 100.97085571 -0.21841431 C102.04220261 -0.22965332 103.1135495 -0.24089233 104.21736145 -0.25247192 C111.46445587 -0.19087508 111.46445587 -0.19087508 115.39556885 2.15911865 C117.49750924 4.57341283 117.88572257 5.60307471 117.79360962 8.76742554 C117.79489868 9.52023804 117.79618774 10.27305054 117.79751587 11.04867554 C117.018019 14.10215294 115.63596134 15.26659581 113.23110962 17.26742554 C110.89162445 17.7707901 110.89162445 17.7707901 108.25930786 17.77536011 C107.25830551 17.7866394 106.25730316 17.7979187 105.22596741 17.80953979 C104.13389481 17.80144287 103.0418222 17.79334595 101.91665649 17.78500366 C100.18440575 17.79551758 100.18440575 17.79551758 98.41716003 17.8062439 C94.59448298 17.8238692 90.77254439 17.8121842 86.94985962 17.79867554 C84.29714026 17.80136913 81.64444345 17.80524411 78.99172974 17.81027222 C73.43000263 17.81754738 67.86848805 17.80796458 62.30679321 17.78890991 C55.87870676 17.76714112 49.4511278 17.77419261 43.02305365 17.79621553 C37.50189291 17.81437348 31.98088487 17.81692602 26.45970392 17.80646086 C23.16306481 17.80022795 19.86671627 17.80095712 16.57008362 17.81260681 C12.89489222 17.82274344 9.22068097 17.80730983 5.54556274 17.78500366 C3.90745384 17.79714905 3.90745384 17.79714905 2.23625183 17.80953979 C0.73474831 17.79262085 0.73474831 17.79262085 -0.79708862 17.77536011 C-1.6657531 17.77385201 -2.53441757 17.7723439 -3.42940521 17.7707901 C-6.57181677 17.09466757 -7.76837698 15.73032871 -9.76889038 13.26742554 C-10.92600847 9.64178887 -11.10406128 8.00480151 -9.51889038 4.51742554 C-6.64786982 0.82611339 -4.50176603 0.0176776 0 0 Z " fill="#000000" transform="translate(209.76889038085938,321.7325744628906)"/>
<path d="M0 0 C6.96093471 4.68190983 10.39114715 10.17344146 13 18 C13.91486786 26.17381943 12.42065122 33.36528346 7.4921875 40.04296875 C2.47474744 45.51547896 -2.99173722 48.59549642 -10.40625 49.34375 C-19.02500172 49.56474363 -25.00163592 48.74397535 -32.1875 43.8125 C-38.26672706 37.73327294 -41.08099969 31.94623988 -41.375 23.375 C-41.28418825 15.91935556 -39.10711097 10.51123414 -34.16796875 4.9296875 C-24.73483881 -3.96387485 -11.72893163 -6.05779985 0 0 Z M-23 20 C-24.1490712 21.9254644 -24.1490712 21.9254644 -24 24 C-22.20270075 28.09384828 -20.14691563 30.30353452 -16 32 C-11.74119188 32 -9.75549477 31.67800813 -6.5625 28.8125 C-4.68736012 25.43724821 -4.28764314 23.7992366 -5 20 C-6.98818595 17.14198269 -8.47604331 15.38098917 -11.9375 14.515625 C-17.25476927 14.15308391 -19.74006546 15.65342061 -23 20 Z " fill="#000000" transform="translate(169,307)"/>
<path d="M0 0 C6.42184053 3.8101413 10.10273905 8.68357839 12.55859375 15.7109375 C14.62191611 23.85434585 13.34420523 31.03259064 9.21875 38.31640625 C4.89956819 44.30826855 -0.63256059 47.62381962 -7.78125 49.31640625 C-16.46398164 50.44708138 -23.63772102 49.57365416 -30.78125 44.31640625 C-36.49281117 39.09440747 -40.32382619 34.45135744 -41.0234375 26.59765625 C-41.40715747 17.65923802 -39.66486309 11.16801178 -33.59375 4.50390625 C-24.15625288 -4.07563659 -11.55135375 -5.38188072 0 0 Z M-20.78125 17.31640625 C-23.18793747 19.30755239 -23.18793747 19.30755239 -23.21875 23.19140625 C-23.13315659 26.56011817 -22.9636592 27.11315029 -20.59375 29.75390625 C-17.74043113 31.3390834 -16.03797964 32.23697382 -12.78125 32.31640625 C-8.84510984 30.77282187 -7.14898424 29.86800761 -4.78125 26.31640625 C-4.1974304 23.40148075 -4.1974304 23.40148075 -4.78125 20.31640625 C-7.04132384 17.41059703 -8.80535529 15.71677331 -12.21875 14.31640625 C-15.71341459 14.31640625 -17.81478707 15.53652849 -20.78125 17.31640625 Z " fill="#000000" transform="translate(168.78125,162.68359375)"/>
<path d="M0 0 C6.19436252 4.26476944 10.48418544 9.46342667 12 17 C12.87651192 25.1903573 11.43719048 32.34287404 6.4921875 39.04296875 C1.47607309 44.51403307 -3.97749414 47.54787593 -11.37109375 48.37890625 C-20.38456923 48.67967884 -26.39650745 47.06899504 -33.8125 42.125 C-39.73578854 36.37094827 -42.05351754 30.36552123 -42.4375 22.25 C-42.28217798 14.87677214 -40.05097039 9.4477917 -35.16796875 3.9296875 C-25.30380687 -5.37025211 -11.75279406 -7.30029324 0 0 Z M-24 18 C-25.16210219 20.39351495 -25.16210219 20.39351495 -25 23 C-23.23941962 27.10802088 -21.12565505 29.27298161 -17 31 C-12.98935002 31 -11.32929701 30.25055207 -8.125 27.8125 C-5.81193565 25.16765549 -5.81193565 25.16765549 -5.375 22 C-6.237881 17.85817119 -7.55849135 16.43773529 -11 14 C-16.39316654 12.74956824 -20.25402854 13.79997139 -24 18 Z " fill="#000000" transform="translate(170,236)"/>
</svg>
