<?xml version="1.0" encoding="UTF-8"?>
<svg version="1.1" xmlns="http://www.w3.org/2000/svg" width="512" height="512">
<path d="M0 0 C1.53904201 -0.00374058 3.07808212 -0.00834372 4.61711925 -0.01373065 C8.83010585 -0.02592602 13.04301283 -0.02570427 17.25601304 -0.02334189 C21.806318 -0.02293284 26.35659774 -0.03398142 30.90689087 -0.04345703 C39.81651892 -0.0600498 48.72612049 -0.06556583 57.6357627 -0.06668179 C64.88179176 -0.06763323 72.12781212 -0.07174834 79.37383842 -0.07808304 C99.93585453 -0.09569199 120.49784977 -0.10492264 141.05987347 -0.10342209 C142.72163968 -0.10330222 142.72163968 -0.10330222 144.41697693 -0.10317993 C146.08078209 -0.10305729 146.08078209 -0.10305729 147.77819949 -0.10293217 C165.74379788 -0.10211973 183.70931234 -0.12124784 201.67488647 -0.14945666 C220.13965726 -0.17821952 238.60438716 -0.19199504 257.06918091 -0.19026911 C267.42849678 -0.18960631 277.7877247 -0.19505026 288.14702034 -0.21662521 C296.96938181 -0.23488196 305.79161546 -0.23914766 314.61398769 -0.22560637 C319.11018851 -0.2190989 323.60614446 -0.21887858 328.10232162 -0.23631287 C332.22877505 -0.25214802 336.35479158 -0.24907476 340.48123502 -0.2317446 C341.96374624 -0.22869745 343.44629092 -0.23221951 344.92876262 -0.24346475 C358.17813085 -0.33720663 371.39082579 1.66506729 383.20188904 8.01742554 C383.8626947 8.36176636 384.52350037 8.70610718 385.20433044 9.06088257 C390.97509366 12.16279122 396.00139481 15.82829967 400.82688904 20.26742554 C401.65575623 21.00476929 402.48462341 21.74211304 403.33860779 22.50180054 C417.30138474 35.58789471 426.6384376 53.69138618 428.10355079 72.89339983 C428.21383818 76.90446651 428.23247094 80.9095994 428.21456909 84.92155457 C428.21875085 86.46405046 428.22423295 88.00654328 428.2308889 89.54903048 C428.245252 93.75302005 428.24112762 97.95681206 428.23372209 102.16081202 C428.2289699 106.708326 428.24151836 111.2557985 428.2517395 115.80329895 C428.26889313 124.69902552 428.26977461 133.59468134 428.2645266 142.49042014 C428.26047704 149.72491533 428.26193777 156.95938969 428.26727486 164.1938839 C428.26802328 165.22548806 428.2687717 166.25709223 428.2695428 167.31995713 C428.27107436 169.4160035 428.27261271 171.51204985 428.27415777 173.6080962 C428.28787053 193.24329082 428.28245386 212.87844554 428.27097256 232.51363923 C428.26104277 250.45312086 428.27397864 268.3924993 428.29790675 286.33196501 C428.32232506 304.77878698 428.33189883 323.22556095 428.32525402 341.67239875 C428.32176771 352.01823565 428.32395493 362.36399325 428.34150505 372.70981789 C428.35626127 381.51745015 428.35681795 390.32494727 428.33943414 399.13257698 C428.33094964 403.62069968 428.32871177 408.1085813 428.34408569 412.59669113 C428.35801947 416.71559125 428.35305945 420.83404573 428.33384646 424.95292064 C428.33011254 426.43261726 428.33293196 427.91235035 428.34345811 429.39201424 C428.43084474 442.63103094 426.42408484 455.84096093 420.07688904 467.64242554 C419.73254822 468.3032312 419.3882074 468.96403687 419.03343201 469.64486694 C415.93152335 475.41563016 412.26601491 480.44193131 407.82688904 485.26742554 C407.08954529 486.09629272 406.35220154 486.92515991 405.59251404 487.77914429 C392.50615369 501.74220524 374.40218266 511.07941662 355.19973779 512.54408729 C351.18682123 512.65437826 347.1798356 512.67300703 343.16603088 512.65510559 C341.6228223 512.65928734 340.07961679 512.66476943 338.53641689 512.6714254 C334.33049673 512.68578852 330.12477405 512.68166413 325.91884351 512.67425859 C321.36930365 512.66950644 316.81980527 512.68205478 312.27027893 512.692276 C303.37087737 512.70942931 294.47154652 512.71031124 285.57213272 512.7050631 C278.33524526 512.70101374 271.09837863 512.70247404 263.86149216 512.70781136 C262.82959927 512.70855978 261.79770637 512.7093082 260.734544 512.7100793 C258.63793191 512.71161085 256.54131982 512.7131492 254.44470774 512.71469427 C234.8047745 512.72840673 215.16488114 512.72299041 195.52494882 512.71150906 C177.57832513 512.70157773 159.63180456 512.71451786 141.68519677 512.73844325 C123.23272957 512.76285664 104.78031035 512.77243663 86.32782733 512.76579052 C75.97810992 512.76230332 65.62847179 512.76449742 55.27876663 512.78204155 C46.46854393 512.79679153 37.65845635 512.79736246 28.84823622 512.77997064 C24.35821217 512.77148134 19.8684292 512.76926021 15.37841797 512.78462219 C11.25895323 512.79854129 7.13993446 512.79361442 3.02049504 512.77438296 C1.53947033 512.77064463 0.05840927 512.77348154 -1.42258285 512.78399461 C-24.34682473 512.9350059 -44.97466916 504.58616247 -61.42311096 488.57992554 C-77.97978113 471.78553519 -84.66464744 450.88839527 -84.56079102 427.61329651 C-84.56497277 426.07080061 -84.57045488 424.5283078 -84.57711083 422.98582059 C-84.59147393 418.78183102 -84.58734955 414.57803902 -84.57994401 410.37403905 C-84.57519182 405.82652507 -84.58774029 401.27905258 -84.59796143 396.73155212 C-84.61511506 387.83582556 -84.61599653 378.94016974 -84.61074852 370.04443093 C-84.60669897 362.80993574 -84.6081597 355.57546138 -84.61349678 348.34096718 C-84.6142452 347.30936301 -84.61499362 346.27775884 -84.61576473 345.21489394 C-84.61729628 343.11884758 -84.61883463 341.02280122 -84.62037969 338.92675487 C-84.63409245 319.29156025 -84.62867579 299.65640554 -84.61719448 280.02121184 C-84.6072647 262.08173022 -84.62020057 244.14235178 -84.64412867 226.20288607 C-84.66854698 207.7560641 -84.67812075 189.30929013 -84.67147595 170.86245233 C-84.66798963 160.51661542 -84.67017686 150.17085782 -84.68772697 139.82503319 C-84.70248319 131.01740092 -84.70303988 122.20990381 -84.68565606 113.40227409 C-84.67717156 108.91415139 -84.6749337 104.42626977 -84.69030762 99.93815994 C-84.70424139 95.81925982 -84.69928138 91.70080535 -84.68006838 87.58193044 C-84.67633447 86.10223381 -84.67915388 84.62250073 -84.68968003 83.14283683 C-84.77706667 69.90382013 -82.77030676 56.69389014 -76.42311096 44.89242554 C-76.07877014 44.23161987 -75.73442932 43.57081421 -75.37965393 42.88998413 C-72.27774527 37.11922092 -68.61223683 32.09291977 -64.17311096 27.26742554 C-63.43576721 26.43855835 -62.69842346 25.60969116 -61.93873596 24.75570679 C-45.33174265 7.03615346 -23.8537051 -0.05509713 0 0 Z M-43.04811096 49.47836304 C-50.40093317 59.27156158 -54.29048818 70.36643193 -54.30453873 82.59444618 C-54.30837987 83.85301449 -54.31222102 85.11158281 -54.31617856 86.40828955 C-54.31539841 87.7972582 -54.31451965 89.18622679 -54.31355286 90.57519531 C-54.31613801 92.05675025 -54.31915159 93.53830449 -54.32255626 95.01985776 C-54.33061193 99.08770439 -54.33241503 103.15553335 -54.33315372 107.223387 C-54.33500678 111.61210492 -54.3425554 116.00081373 -54.34928894 120.38952637 C-54.36286273 129.98471085 -54.36889553 139.57989115 -54.3732996 149.17508364 C-54.3760637 155.16837305 -54.38030137 161.16166086 -54.38480377 167.15494919 C-54.39699532 183.75429241 -54.40729478 200.35363435 -54.41067886 216.95298195 C-54.41089843 218.01509253 -54.411118 219.07720311 -54.41134422 220.17149886 C-54.41156249 221.23612602 -54.41178077 222.30075319 -54.41200566 223.39764178 C-54.41244913 225.55491996 -54.41289569 227.71219814 -54.41334534 229.86947632 C-54.41356677 230.9395569 -54.4137882 232.00963749 -54.41401634 233.11214475 C-54.4179634 250.44689991 -54.43541517 267.781613 -54.45870486 285.11635192 C-54.48243255 302.92107687 -54.49488136 320.72578073 -54.49604678 338.53052175 C-54.49696276 348.52421254 -54.50269555 358.51784853 -54.52086639 368.5115242 C-54.53628653 377.02224062 -54.54137656 385.53288529 -54.53312829 394.04361303 C-54.52922854 398.38331646 -54.53011834 402.72287549 -54.54418564 407.06256104 C-54.55696504 411.04144299 -54.55569185 415.02007265 -54.54359493 418.99895446 C-54.54164489 420.43235976 -54.54468404 421.86578318 -54.55343929 423.29916306 C-54.64795754 439.83039707 -51.08131526 454.98354184 -39.35670471 467.24008179 C-28.87824607 476.96874017 -16.18998104 482.38237152 -1.84609032 482.3988533 C-0.587522 482.40269445 0.67104631 482.40653559 1.96775305 482.41049314 C3.3567217 482.40971299 4.74569029 482.40883422 6.13465881 482.40786743 C7.61621375 482.41045258 9.09776799 482.41346616 10.57932127 482.41687083 C14.64716789 482.4249265 18.71499685 482.42672961 22.7828505 482.4274683 C27.17156842 482.42932136 31.56027723 482.43686998 35.94898987 482.44360352 C45.54417435 482.4571773 55.13935465 482.4632101 64.73454714 482.46761417 C70.72783655 482.47037828 76.72112436 482.47461594 82.71441269 482.47911835 C99.31375591 482.49130989 115.91309785 482.50160935 132.51244545 482.50499344 C134.10561132 482.50532279 134.10561132 482.50532279 135.73096236 482.50565879 C137.3279031 482.50598621 137.3279031 482.50598621 138.95710528 482.50632024 C141.11438346 482.5067637 143.27166164 482.50721026 145.42893982 482.50765991 C146.4990204 482.50788134 147.56910099 482.50810277 148.67160825 482.50833091 C166.00636341 482.51227798 183.34107651 482.52972974 200.67581542 482.55301943 C218.48054037 482.57674713 236.28524423 482.58919594 254.08998525 482.59036136 C264.08367604 482.59127733 274.07731203 482.59701012 284.0709877 482.61518097 C292.58170412 482.6306011 301.0923488 482.63569114 309.60307653 482.62744287 C313.94277996 482.62354311 318.28233899 482.62443292 322.62202454 482.63850021 C326.60090649 482.65127961 330.57953615 482.65000642 334.55841796 482.6379095 C335.99182326 482.63595947 337.42524668 482.63899861 338.85862656 482.64775386 C355.38986057 482.74227211 370.54300534 479.17562984 382.79954529 467.45101929 C392.52820367 456.97256065 397.94183502 444.28429562 397.9583168 429.94040489 C397.96215795 428.68183658 397.96599909 427.42326827 397.96995664 426.12656152 C397.96917649 424.73759288 397.96829772 423.34862429 397.96733093 421.95965576 C397.96991608 420.47810083 397.97292966 418.99654659 397.97633433 417.51499331 C397.98439001 413.44714669 397.98619311 409.37931773 397.9869318 405.31146407 C397.98878486 400.92274615 397.99633348 396.53403734 398.00306702 392.14532471 C398.0166408 382.55014022 398.0226736 372.95495992 398.02707767 363.35976744 C398.02984178 357.36647802 398.03407945 351.37319021 398.03858185 345.37990189 C398.05077339 328.78055866 398.06107285 312.18121673 398.06445694 295.58186913 C398.06467651 294.51975855 398.06489607 293.45764797 398.06512229 292.36335222 C398.06534057 291.29872505 398.06555885 290.23409789 398.06578374 289.1372093 C398.0662272 286.97993112 398.06667377 284.82265294 398.06712341 282.66537476 C398.06734484 281.59529417 398.06756627 280.52521359 398.06779441 279.42270632 C398.07174148 262.08795116 398.08919324 244.75323807 398.11248294 227.41849916 C398.13621063 209.6137742 398.14865944 191.80907034 398.14982486 174.00432932 C398.15074083 164.01063853 398.15647362 154.01700255 398.17464447 144.02332687 C398.1900646 135.51261046 398.19515464 127.00196578 398.18690637 118.49123804 C398.18300661 114.15153462 398.18389642 109.81197559 398.19796371 105.47229004 C398.21074311 101.49340808 398.20946992 97.51477842 398.197373 93.53589661 C398.19542297 92.10249132 398.19846211 90.6690679 398.20721737 89.23568802 C398.30173561 72.70445401 394.73509334 57.55130924 383.01048279 45.29476929 C372.95224284 35.95626028 360.42294304 30.15588708 346.5972681 30.13320446 C345.33495745 30.12874662 344.07264679 30.12428877 342.7720843 30.11969584 C341.37369095 30.11978513 339.97529761 30.11997497 338.5769043 30.12025452 C337.08938801 30.11695401 335.60187262 30.11322805 334.11435837 30.10911304 C330.02531262 30.0991059 325.93628156 30.09537831 321.84722531 30.09272373 C317.43731828 30.0888168 313.02742282 30.07923866 308.61752319 30.07051086 C297.96613011 30.05075633 287.31473609 30.04068103 276.66332927 30.03178307 C271.64480411 30.02739808 266.62628 30.02203178 261.60775566 30.0167942 C244.92010117 29.99978212 228.23244733 29.98528894 211.5447855 29.97804546 C207.21507326 29.97613563 202.88536102 29.97421529 198.5556488 29.97225952 C197.47954611 29.97177578 196.40344342 29.97129204 195.29473155 29.97079364 C177.8707191 29.96249705 160.44677539 29.93716631 143.02279294 29.90467884 C125.12542927 29.87158143 107.22810049 29.85359423 89.33070606 29.85040122 C79.28549655 29.8482385 69.24038724 29.83952471 59.1952076 29.81394005 C50.63839768 29.79219633 42.08171232 29.78420064 33.52487791 29.79390683 C29.16261238 29.79844104 24.80060362 29.79661679 20.43837357 29.77714539 C16.43646349 29.75943743 12.43499606 29.76057263 8.43308078 29.77604268 C6.99355052 29.77840726 5.55398899 29.77415557 4.11450631 29.76221403 C-14.41961227 29.61811674 -30.83936833 35.08222069 -43.04811096 49.47836304 Z " fill="#000000" transform="translate(84.17311096191406,-0.267425537109375)"/>
<path d="M0 0 C9.40844776 9.13172871 17.28365427 19.5708966 24.3828125 30.56640625 C24.80191895 31.20803711 25.22102539 31.84966797 25.65283203 32.51074219 C35.02267235 47.08604935 35.02267235 47.08604935 34.328125 55.30859375 C27.00680918 80.53990529 2.69144485 105.06787196 -17.6171875 120.56640625 C-18.20967285 121.01886719 -18.8021582 121.47132813 -19.41259766 121.9375 C-69.21800426 159.49192153 -133.1672047 172.50393047 -194.375 164.19189453 C-248.55824871 156.14052922 -301.20056189 130.01461328 -334.29882812 85.39404297 C-337.99272823 80.27320293 -341.33362597 74.95628342 -344.6171875 69.56640625 C-345.24109375 68.60863281 -345.865 67.65085937 -346.5078125 66.6640625 C-349.8448985 61.22960236 -351.80082494 56.44822808 -351.45703125 50 C-348.44134069 37.67073488 -339.5266283 26.22910642 -331.6171875 16.56640625 C-331.18792969 16.03708496 -330.75867188 15.50776367 -330.31640625 14.96240234 C-293.92722954 -29.75066745 -240.21760169 -54.12894632 -183.6171875 -60.43359375 C-116.1919152 -67.30283514 -49.61463939 -46.13420947 0 0 Z M-278.6171875 7.56640625 C-279.98810547 8.60474609 -279.98810547 8.60474609 -281.38671875 9.6640625 C-294.42298342 19.87548504 -305.63653715 31.66435951 -314.6171875 45.56640625 C-315.22046875 46.39914063 -315.82375 47.231875 -316.4453125 48.08984375 C-318.03574257 51.45095263 -317.71236617 53.03156129 -316.6171875 56.56640625 C-315.23109279 58.92219685 -313.86571666 61.01636236 -312.2421875 63.19140625 C-311.79883057 63.79750732 -311.35547363 64.4036084 -310.89868164 65.02807617 C-306.23202759 71.28595061 -301.02930747 76.95353999 -295.6171875 82.56640625 C-294.91335938 83.33339844 -294.20953125 84.10039062 -293.484375 84.890625 C-262.90531864 117.27186909 -213.21745077 134.45431128 -169.55224609 135.79946899 C-116.43493821 137.08887805 -64.42077872 122.89428973 -24.80078125 86.06640625 C-16.32967249 77.96629495 -9.13678173 69.29889403 -2.6171875 59.56640625 C-1.69679688 58.30183594 -1.69679688 58.30183594 -0.7578125 57.01171875 C0.80034605 53.67128296 0.46858883 52.07090383 -0.6171875 48.56640625 C-2.00328221 46.21061565 -3.36865834 44.11645014 -4.9921875 41.94140625 C-5.43554443 41.33530518 -5.87890137 40.7292041 -6.33569336 40.10473633 C-11.00234741 33.84686189 -16.20506753 28.17927251 -21.6171875 22.56640625 C-22.32101562 21.79941406 -23.02484375 21.03242188 -23.75 20.2421875 C-49.86664403 -7.41365038 -88.05762059 -21.72210868 -124.6171875 -28.43359375 C-125.31602051 -28.56636719 -126.01485352 -28.69914062 -126.73486328 -28.8359375 C-178.19015794 -38.16523971 -237.46596212 -24.52206527 -278.6171875 7.56640625 Z " fill="#000000" transform="translate(414.6171875,203.43359375)"/>
<path d="M0 0 C13.83272467 10.20851286 21.99449498 23.15142099 24.84765625 40.1015625 C26.57435511 55.47182722 23.1046125 70.55821471 13.84765625 83.1015625 C3.24474748 95.69460714 -9.60777434 103.46762243 -26.13867188 105.32470703 C-42.34249875 106.58790859 -57.58677221 102.15544345 -70.09375 91.625 C-82.08275317 80.30477116 -88.86320758 66.71462514 -89.62304688 50.11132812 C-89.86306942 33.6457818 -84.26173939 19.25335399 -72.96484375 7.2890625 C-52.96759348 -11.5926949 -23.3871923 -14.79405166 0 0 Z M-52.58984375 30.4765625 C-58.46772007 38.28597892 -59.28424576 45.41032528 -58.15234375 55.1015625 C-55.58270737 63.63275528 -50.47976183 68.45212286 -43.08984375 72.9765625 C-36.62355109 75.39414039 -28.76498517 75.18970751 -22.234375 73.22265625 C-15.17934087 69.98865422 -9.40242008 64.72300159 -6.62890625 57.3046875 C-4.80877135 48.89029338 -5.2362216 40.71136782 -9.6015625 33.22265625 C-13.44193928 27.96994946 -18.66681696 23.50446014 -25.15234375 22.1015625 C-35.98615696 20.91248544 -44.97072424 22.22406875 -52.58984375 30.4765625 Z " fill="#000000" transform="translate(288.15234375,207.8984375)"/>
</svg>
